<?xml version="1.0" standalone="no"?>
<!DOCTYPE svg PUBLIC "-//W3C//DTD SVG 20010904//EN"
 "http://www.w3.org/TR/2001/REC-SVG-20010904/DTD/svg10.dtd">
<svg version="1.0" xmlns="http://www.w3.org/2000/svg"
 width="474.000000pt" height="266.000000pt" viewBox="0 0 474.000000 266.000000"
 preserveAspectRatio="xMidYMid meet">

<g transform="translate(0.000000,266.000000) scale(0.100000,-0.100000)"
fill="#000000" stroke="none">
<path d="M4412 2599 c-17 -26 -14 -29 21 -22 30 6 36 27 11 37 -9 3 -16 6 -17
6 -1 0 -8 -9 -15 -21z"/>
<path d="M4500 2559 c0 -5 5 -7 10 -4 6 3 10 8 10 11 0 2 -4 4 -10 4 -5 0 -10
-5 -10 -11z"/>
<path d="M4610 2496 c0 -2 7 -7 16 -10 8 -3 12 -2 9 4 -6 10 -25 14 -25 6z"/>
<path d="M4590 2480 c8 -5 20 -10 25 -10 6 0 3 5 -5 10 -8 5 -19 10 -25 10 -5
0 -3 -5 5 -10z"/>
<path d="M4450 2470 c0 -5 7 -7 15 -4 8 4 15 8 15 10 0 2 -7 4 -15 4 -8 0 -15
-4 -15 -10z"/>
<path d="M2230 2321 l0 -141 30 0 30 0 0 81 c0 46 4 78 9 74 5 -3 19 -33 30
-68 27 -79 32 -86 61 -89 23 -3 28 5 60 97 l35 100 3 -97 3 -98 29 0 30 0 0
140 0 140 -44 0 c-49 0 -46 4 -94 -140 l-19 -54 -16 44 c-9 25 -25 68 -35 95
-17 50 -18 50 -65 53 l-47 3 0 -140z"/>
<path d="M2663 2440 c-18 -10 -39 -33 -48 -49 -22 -43 -19 -119 5 -159 51 -84
194 -77 238 11 17 35 19 106 3 145 -28 67 -130 94 -198 52z m121 -59 c28 -30
25 -109 -3 -133 -55 -44 -111 -6 -111 76 0 66 73 102 114 57z"/>
<path d="M2920 2320 l0 -140 30 0 29 0 3 92 3 92 58 -92 c55 -87 60 -92 93
-92 l34 0 0 140 0 140 -30 0 -30 0 0 -92 0 -93 -61 93 c-58 86 -64 92 -95 92
l-34 0 0 -140z"/>
<path d="M3237 2453 c-4 -3 -7 -66 -7 -140 l0 -133 35 0 35 0 0 63 0 62 40
-60 c33 -50 46 -61 75 -66 20 -3 38 -2 41 2 2 5 -16 36 -41 71 -25 34 -45 66
-45 70 0 5 17 32 38 61 59 80 58 77 13 77 -38 0 -41 -3 -78 -62 l-38 -62 -3
62 c-3 60 -4 62 -31 62 -15 0 -31 -3 -34 -7z"/>
<path d="M4285 2440 c3 -5 8 -10 11 -10 2 0 4 5 4 10 0 6 -5 10 -11 10 -5 0
-7 -4 -4 -10z"/>
<path d="M4525 2440 c-3 -6 1 -7 9 -4 18 7 21 14 7 14 -6 0 -13 -4 -16 -10z"/>
<path d="M4647 2444 c-11 -11 -8 -74 3 -74 6 0 13 7 16 15 7 18 -9 69 -19 59z"/>
<path d="M4375 2420 c-13 -6 -15 -9 -5 -9 8 0 22 4 30 9 18 12 2 12 -25 0z"/>
<path d="M4290 2409 c0 -5 5 -7 10 -4 6 3 10 8 10 11 0 2 -4 4 -10 4 -5 0 -10
-5 -10 -11z"/>
<path d="M4585 2410 c-3 -6 1 -7 9 -4 18 7 21 14 7 14 -6 0 -13 -4 -16 -10z"/>
<path d="M4550 2404 c0 -7 15 -23 34 -38 40 -30 60 -35 27 -7 -16 14 -18 21
-9 25 7 3 3 3 -9 0 -14 -3 -25 1 -32 13 -6 10 -11 13 -11 7z"/>
<path d="M1909 2359 c-21 -18 -25 -18 -35 -5 -14 20 -34 21 -34 1 0 -8 -5 -15
-12 -15 -7 0 -6 -6 4 -17 9 -10 13 -24 11 -31 -10 -28 17 -42 76 -38 56 4 56
5 56 37 0 18 6 34 12 36 19 7 28 -26 14 -48 -10 -17 -8 -19 21 -19 25 0 29 3
20 12 -7 7 -12 22 -12 34 0 26 -24 48 -45 40 -10 -4 -15 1 -15 14 0 26 -30 26
-61 -1z m37 -53 c-1 -25 -5 -30 -31 -31 -37 -2 -52 5 -34 16 10 6 11 9 2 9
-22 0 -14 18 10 22 12 2 23 9 23 16 3 23 4 23 18 10 7 -8 13 -27 12 -42z"/>
<path d="M4502 2354 c-7 -8 -8 -14 -3 -14 10 0 25 19 20 25 -2 1 -10 -3 -17
-11z"/>
<path d="M2083 2338 c-30 -15 -31 -63 -2 -78 22 -13 79 -4 79 12 0 5 -12 7
-27 4 -16 -3 -35 -2 -43 4 -11 7 -4 10 28 10 35 0 42 3 42 20 0 13 -10 24 -26
30 -14 6 -26 10 -27 9 -1 0 -12 -5 -24 -11z m42 -18 c4 -6 -6 -10 -22 -10 -22
0 -25 2 -13 10 19 12 27 12 35 0z"/>
<path d="M4637 2329 c-4 -15 0 -23 13 -26 11 -3 22 -14 26 -25 7 -22 28 -19
32 6 3 15 -43 66 -59 66 -4 0 -9 -9 -12 -21z"/>
<path d="M4420 2336 c0 -2 7 -7 16 -10 8 -3 12 -2 9 4 -6 10 -25 14 -25 6z"/>
<path d="M4465 2301 c-3 -5 -1 -12 5 -16 6 -4 7 -11 4 -17 -4 -7 -2 -8 5 -4 8
6 9 12 2 20 -6 7 -8 16 -4 19 3 4 4 7 0 7 -3 0 -8 -4 -12 -9z"/>
<path d="M4281 2284 c0 -11 3 -14 6 -6 3 7 2 16 -1 19 -3 4 -6 -2 -5 -13z"/>
<path d="M4323 2293 c4 -3 1 -13 -6 -22 -11 -14 -10 -14 6 -2 20 15 22 31 5
31 -6 0 -8 -3 -5 -7z"/>
<path d="M2124 2226 c-10 -8 -16 -17 -13 -20 3 -3 14 3 24 14 21 23 17 26 -11
6z"/>
<path d="M4678 2233 c-49 -5 -49 -20 2 -92 22 -31 40 -62 40 -69 0 -7 5 -12
10 -12 20 0 10 61 -15 88 -30 32 -29 56 3 60 12 2 22 10 22 18 0 8 -6 13 -12
12 -7 -1 -30 -3 -50 -5z"/>
<path d="M4280 2211 c0 -6 4 -13 10 -16 6 -3 7 1 4 9 -7 18 -14 21 -14 7z"/>
<path d="M1775 2180 c3 -5 8 -10 11 -10 2 0 4 5 4 10 0 6 -5 10 -11 10 -5 0
-7 -4 -4 -10z"/>
<path d="M4520 2174 c0 -18 17 -36 24 -26 4 8 16 8 36 1 33 -12 63 -9 58 5 -2
5 -12 11 -23 12 -11 1 -37 5 -57 9 -21 4 -38 4 -38 -1z"/>
<path d="M4515 2120 c-3 -5 -1 -10 4 -10 6 0 11 5 11 10 0 6 -2 10 -4 10 -3 0
-8 -4 -11 -10z"/>
<path d="M1925 2110 c3 -5 11 -10 16 -10 6 0 7 5 4 10 -3 6 -11 10 -16 10 -6
0 -7 -4 -4 -10z"/>
<path d="M2463 2109 c18 -10 18 -12 -3 -31 -19 -18 -20 -22 -7 -41 7 -11 31
-25 52 -31 51 -15 58 -36 11 -36 -20 0 -36 5 -36 10 0 6 -9 10 -20 10 -26 0
-25 -15 2 -34 29 -21 92 -20 113 0 30 30 15 57 -40 75 -50 15 -62 31 -29 37 9
2 21 -1 27 -7 13 -13 47 -15 47 -2 0 16 -30 34 -59 35 -18 1 -27 5 -24 14 4 8
-5 12 -23 12 -26 -1 -27 -2 -11 -11z"/>
<path d="M4191 2072 c-7 -23 -16 -42 -21 -42 -6 0 -5 11 1 27 l10 26 -158 -7
c-140 -6 -160 -9 -179 -27 l-22 -21 -18 33 -17 34 -11 -45 c-11 -43 -10 -46
16 -63 16 -11 25 -24 21 -33 -3 -8 0 -14 6 -14 9 0 10 -70 1 -90 -1 -3 -2 -8
-1 -12 2 -16 -99 -21 -115 -5 -3 2 2 21 10 41 14 34 14 37 -7 60 -12 13 -28
31 -35 40 -12 15 -15 15 -32 -7 -10 -12 -20 -36 -23 -52 -4 -29 -4 -29 -6 -4
-1 27 -20 43 -37 31 -27 -20 -35 -41 -24 -64 l11 -23 -19 22 c-17 19 -21 20
-26 7 -10 -26 -7 -42 11 -59 14 -14 14 -20 4 -37 -7 -11 -8 -17 -3 -14 6 3 12
3 15 -1 2 -5 2 -2 1 5 -2 6 5 12 16 12 22 0 28 35 8 43 -7 3 -1 6 15 6 21 1
27 -4 27 -19 0 -11 -4 -20 -10 -20 -5 0 -10 -11 -10 -24 0 -14 -5 -28 -11 -32
-8 -4 -9 1 -5 17 6 22 6 23 -7 7 -10 -13 -29 -18 -65 -18 -59 0 -79 -6 -91
-29 -8 -14 0 -16 57 -19 36 -2 69 -5 74 -8 4 -3 8 -19 8 -36 0 -24 3 -29 18
-25 9 3 45 15 80 25 l63 20 -6 -21 c-6 -21 -5 -21 8 1 14 24 27 20 27 -10 0
-10 5 -18 11 -18 5 0 7 -5 3 -12 -5 -8 -2 -9 12 -4 10 4 15 4 12 0 -8 -8 16
-34 32 -34 6 0 9 4 6 9 -7 10 23 45 42 49 6 1 12 -7 12 -18 0 -11 -7 -20 -15
-20 -8 0 -15 -5 -15 -11 0 -6 7 -8 16 -5 13 5 15 -2 8 -52 -3 -31 -8 -58 -9
-60 -5 -6 -35 11 -35 20 0 5 -7 17 -16 26 -15 14 -18 14 -28 1 -6 -8 -23 -15
-38 -15 -29 0 -33 12 -29 86 1 22 0 23 -9 8 -13 -21 -36 -24 -44 -5 -3 8 -8 7
-16 -5 -6 -10 -20 -18 -30 -18 -11 0 -21 -6 -21 -12 -1 -7 -4 0 -8 17 -4 19
-13 31 -26 33 -11 2 -24 9 -30 14 -7 8 -6 9 3 4 6 -4 12 -2 12 3 0 16 -26 13
-41 -5 -7 -9 -12 -36 -12 -60 1 -31 -3 -44 -12 -44 -8 0 -16 4 -20 10 -3 5
-12 7 -21 3 -18 -6 -104 25 -104 38 0 5 16 9 35 9 31 0 35 3 35 25 0 16 -6 25
-16 25 -14 0 -16 11 -11 87 3 48 11 89 16 91 6 2 11 14 11 27 0 20 -6 23 -47
27 -27 3 -54 3 -60 0 -18 -6 -16 -41 2 -48 12 -5 15 -25 15 -95 0 -72 -3 -89
-15 -89 -8 0 -15 -8 -15 -17 0 -9 -17 8 -38 38 l-38 54 23 22 c17 16 23 33 23
62 0 57 -24 71 -122 71 l-78 0 0 -140 0 -140 30 0 c29 0 30 1 30 49 0 28 5 53
11 56 14 10 43 -18 69 -69 21 -38 26 -42 53 -38 27 4 29 2 24 -18 -6 -24 1
-52 12 -46 4 3 13 0 21 -5 12 -8 11 -9 -4 -7 -15 2 -21 -5 -27 -32 -4 -20 -3
-40 2 -47 7 -7 6 -13 -1 -18 -6 -3 -8 -11 -4 -16 11 -18 26 3 19 28 -5 20 -3
24 9 20 9 -4 16 -2 16 3 0 6 6 10 14 10 8 0 17 6 19 13 4 9 8 9 15 -1 7 -11
10 -9 15 7 3 12 10 21 17 21 7 0 9 -8 4 -22 -8 -29 -8 -29 -32 -31 -11 0 -19
-4 -16 -8 4 -7 -16 -27 -28 -28 -5 -1 -8 -3 -8 -6 0 -3 0 -10 0 -16 0 -5 6 -7
13 -3 6 4 4 -1 -5 -12 -14 -17 -15 -21 -2 -38 8 -11 20 -21 28 -22 16 -2 29
22 21 37 -4 5 1 6 9 3 19 -7 20 -16 5 -31 -9 -9 -5 -11 13 -9 14 2 30 6 36 10
16 10 15 -7 0 -23 -11 -11 -10 -13 5 -7 13 4 17 2 15 -6 -3 -8 -23 -13 -47
-14 -23 -1 -44 -4 -47 -7 -3 -3 -1 -20 4 -39 7 -24 6 -37 -4 -45 -10 -10 -12
-6 -7 22 5 30 3 35 -14 35 -11 0 -25 -10 -30 -22 -11 -23 -11 -23 -22 6 -10
24 -9 32 7 50 19 22 19 56 0 56 -6 0 -9 -3 -5 -6 3 -3 -5 -26 -19 -51 -13 -25
-22 -49 -19 -53 2 -4 0 -21 -5 -39 -5 -19 -5 -29 1 -26 5 4 9 0 9 -7 1 -8 8
-4 19 9 l18 21 0 -29 c0 -15 -4 -26 -9 -23 -4 3 -8 -3 -8 -12 0 -14 -3 -15
-12 -6 -18 18 -46 14 -60 -8 -14 -22 -38 -27 -38 -7 0 7 9 18 19 24 13 8 18
19 14 33 -3 11 -1 20 5 20 5 0 12 9 15 20 3 11 1 20 -4 20 -5 0 -9 -6 -10 -12
0 -7 -5 -3 -11 9 -6 13 -14 23 -18 23 -13 0 -18 -38 -8 -48 7 -7 3 -12 -11
-17 -28 -9 -43 2 -36 26 4 11 2 19 -4 19 -12 0 -14 -10 -12 -50 2 -24 1 -24
-14 -6 -11 15 -15 16 -15 5 -1 -8 -7 -3 -15 11 -12 22 -12 28 1 48 22 33 13
35 -29 7 -20 -14 -41 -25 -47 -25 -6 0 -8 -5 -5 -11 4 -6 13 -8 21 -5 20 8 17
-8 -6 -29 -24 -21 -26 -37 -5 -29 8 4 15 1 15 -5 0 -6 -9 -11 -20 -11 -11 0
-20 -7 -20 -15 0 -8 7 -15 15 -15 8 0 15 -4 15 -10 0 -5 -4 -10 -10 -10 -5 0
-10 -7 -10 -15 0 -9 6 -12 15 -9 8 4 15 1 15 -5 0 -6 7 -11 15 -11 8 0 15 -4
15 -10 0 -5 -6 -7 -13 -4 -21 8 -74 -15 -58 -25 22 -14 8 -46 -18 -43 -18 2
-22 -2 -17 -14 3 -8 6 -18 6 -20 0 -3 4 -3 9 0 5 3 11 -1 15 -9 6 -17 -10 -30
-19 -15 -4 6 -15 2 -28 -11 -18 -16 -19 -21 -7 -29 8 -5 18 -6 24 -3 5 3 6 1
2 -5 -4 -6 -13 -9 -21 -5 -10 3 -15 -2 -15 -16 0 -12 -5 -21 -11 -21 -6 0 -9
-8 -7 -17 2 -12 13 -19 33 -20 48 -2 72 -13 85 -39 8 -15 17 -21 24 -15 12 9
96 24 96 17 0 -13 -28 -51 -39 -54 -7 -1 -10 2 -6 8 3 5 1 10 -4 10 -6 0 -11
-5 -11 -11 0 -7 -10 -9 -26 -5 -30 8 -74 -25 -74 -55 0 -18 -31 -31 -49 -20
-7 5 -2 12 14 19 26 12 33 36 14 48 -8 4 -9 0 -4 -15 5 -16 3 -20 -9 -15 -20
8 -5 48 20 53 40 7 46 23 17 41 -46 28 -69 22 -64 -17 1 -6 -3 -14 -8 -17 -5
-3 -7 -15 -4 -25 3 -10 0 -22 -6 -25 -6 -4 -11 -2 -11 4 0 6 -7 18 -16 27 -11
12 -18 13 -27 4 -8 -8 -7 -11 6 -11 9 0 17 -5 17 -11 0 -12 -36 -3 -65 17 -19
14 -19 14 0 14 16 0 17 2 5 9 -8 6 -18 7 -23 4 -5 -3 -26 -5 -48 -5 -21 1 -39
-3 -39 -8 0 -11 -33 -7 -42 5 -4 6 -8 15 -8 20 0 6 4 4 9 -4 8 -12 14 -12 39
-2 17 7 40 10 51 6 11 -3 33 1 50 9 23 12 36 13 61 5 38 -14 53 -4 16 10 -30
12 -36 25 -6 16 11 -3 20 -2 20 4 0 12 -14 21 -43 27 -18 3 -25 -3 -34 -27 -7
-18 -17 -28 -23 -24 -6 3 -8 11 -5 16 4 5 0 9 -7 9 -10 0 -9 3 2 9 8 6 18 7
22 5 4 -3 8 0 8 5 0 6 -4 12 -10 12 -33 4 -45 2 -42 -9 1 -7 -3 -12 -9 -12 -6
0 -9 6 -6 14 7 18 -17 28 -51 20 -53 -12 -62 -16 -56 -25 3 -5 9 -7 13 -5 4 3
12 -4 19 -15 10 -15 10 -19 -2 -19 -7 0 -19 -7 -26 -15 -11 -13 -15 -13 -21
-3 -7 10 -9 9 -9 -4 0 -10 -5 -18 -11 -18 -6 0 -8 7 -5 17 4 9 -9 -1 -29 -22
-33 -37 -33 -55 0 -55 6 0 3 5 -5 10 -12 7 -8 10 15 11 26 0 28 2 10 10 -15 7
-9 8 25 6 25 -2 52 -5 60 -8 17 -5 50 -43 50 -57 0 -6 14 -15 30 -21 17 -5 30
-15 30 -21 0 -6 5 -8 10 -5 6 3 10 2 10 -4 0 -5 -9 -13 -20 -16 -33 -11 -12
-24 22 -15 25 8 34 6 44 -8 8 -10 13 -12 14 -5 0 10 6 10 25 1 14 -6 25 -18
25 -27 0 -11 -3 -12 -8 -4 -4 7 -26 14 -49 15 -23 2 -39 6 -36 11 2 4 -3 7
-11 7 -9 0 -16 -4 -16 -9 0 -5 -9 -7 -19 -4 -10 3 -28 0 -39 -6 -22 -12 -52
-5 -52 11 0 6 11 7 26 4 22 -6 24 -5 12 7 -7 8 -23 13 -35 11 -13 -3 -23 0
-23 6 0 5 5 10 11 10 6 0 8 7 5 16 -5 13 -4 14 7 6 10 -9 17 -8 25 0 19 19 14
23 -28 23 -37 0 -40 -2 -40 -27 0 -28 -21 -50 -28 -30 -7 21 -28 13 -30 -10
-3 -31 18 -69 32 -60 15 10 116 10 116 0 0 -5 -3 -8 -7 -9 -31 -3 -50 -7 -65
-14 -12 -5 -18 -3 -18 6 0 10 -3 10 -12 1 -18 -18 -51 -15 -44 3 3 9 -1 18 -9
21 -17 7 -17 64 0 77 18 13 -16 25 -59 21 -33 -4 -37 -3 -18 5 29 14 28 19 -3
13 -14 -2 -25 -8 -25 -13 0 -5 -3 -8 -7 -8 -20 3 -24 -2 -13 -16 10 -12 8 -14
-9 -10 -12 2 -19 0 -16 -4 2 -5 -3 -15 -12 -22 -14 -12 -16 -12 -9 0 5 8 3 17
-5 23 -11 7 -11 11 -1 15 6 2 9 10 5 16 -4 7 0 8 11 4 11 -4 25 1 39 15 12 11
18 19 12 16 -5 -3 -16 1 -24 10 -13 14 -12 15 16 9 27 -5 33 -1 64 40 19 25
40 59 48 74 8 16 21 31 29 34 12 4 13 3 2 -10 -7 -8 -8 -15 -2 -15 16 0 22 26
9 40 -9 10 -9 12 4 7 26 -9 40 7 46 50 6 45 -7 61 -30 38 -20 -19 -47 -9 -48
19 0 13 -3 16 -6 7 -6 -16 -40 -51 -49 -51 -4 0 -1 6 5 13 6 8 8 17 5 20 -7 7
-44 -14 -44 -26 0 -4 5 -5 12 -1 7 4 8 3 4 -4 -4 -7 -14 -12 -23 -12 -11 0
-14 7 -10 27 4 21 2 18 -10 -9 -9 -21 -20 -38 -25 -38 -5 0 -4 9 2 21 7 11 9
23 6 27 -3 3 -6 1 -6 -5 0 -6 -7 -14 -16 -17 -12 -4 -14 -1 -9 13 3 11 2 22
-3 25 -5 3 -12 -8 -15 -24 -5 -22 -10 -28 -23 -23 -13 5 -15 2 -7 -13 5 -10 8
-34 7 -52 -2 -27 1 -32 13 -28 13 5 14 4 3 -9 -12 -14 -7 -19 13 -16 5 1 5 -3
2 -9 -4 -6 -9 -9 -12 -6 -3 2 -16 0 -30 -5 -31 -12 -67 9 -52 31 6 10 9 11 9
3 0 -7 5 -13 12 -13 6 0 8 3 5 6 -3 4 -1 16 4 27 10 17 9 19 -10 14 -21 -5
-29 7 -11 18 6 3 10 13 10 21 0 10 -7 13 -25 8 -15 -4 -25 -2 -25 5 0 6 -5 11
-11 11 -6 0 -9 -7 -5 -15 3 -8 2 -15 -2 -15 -4 0 -13 -14 -19 -31 -7 -17 -17
-28 -22 -24 -6 3 -11 2 -11 -2 0 -5 -11 -10 -25 -11 -29 -2 -31 1 -9 22 14 15
13 16 -10 16 -31 0 -40 -14 -25 -38 9 -14 9 -27 1 -48 -10 -28 -11 -28 -17 -6
-9 27 -29 30 -22 2 3 -11 1 -20 -4 -20 -5 0 -9 -12 -9 -26 0 -15 4 -23 11 -19
5 4 21 -5 34 -19 23 -25 21 -38 -3 -14 -14 14 -52 18 -52 6 0 -4 6 -8 14 -8 8
0 17 -3 19 -7 3 -5 -16 -9 -41 -10 -26 0 -41 1 -34 4 17 7 15 33 -4 33 -8 0
-12 -4 -9 -10 3 -5 -2 -10 -12 -10 -14 0 -15 -2 -5 -9 8 -4 13 -12 11 -17 -3
-13 41 -34 70 -34 13 0 21 -3 18 -7 -10 -10 -67 -6 -81 6 -7 6 -16 8 -19 4 -4
-3 -7 -1 -7 5 0 7 -6 12 -14 12 -15 0 -24 33 -18 63 3 15 6 16 19 6 12 -10 16
-10 24 2 14 22 11 33 -6 19 -10 -9 -15 -9 -15 -1 0 17 -18 13 -40 -9 -11 -11
-20 -15 -20 -10 0 6 -7 10 -15 10 -8 0 -15 5 -15 10 0 6 -13 10 -29 10 -16 0
-31 6 -35 15 -3 8 -13 15 -23 15 -26 0 -93 75 -93 105 0 15 -9 31 -25 41 -14
9 -25 24 -23 33 3 21 -11 61 -22 61 -4 0 -6 10 -2 22 3 14 1 19 -6 14 -12 -7
-49 40 -39 50 3 3 8 -4 12 -15 3 -12 11 -21 17 -21 5 0 7 7 4 16 -3 8 -2 12 4
9 19 -11 10 22 -10 40 -11 10 -25 32 -30 49 -9 28 -9 26 -6 -16 2 -27 2 -48 0
-48 -5 0 -41 83 -46 105 -2 12 -26 31 -65 51 -34 18 -87 51 -118 74 -31 23
-59 39 -63 35 -4 -3 0 -10 8 -15 8 -5 15 -14 15 -21 0 -6 14 -17 30 -24 27
-12 27 -13 8 -14 -13 -1 -23 -6 -23 -12 0 -6 -7 -8 -17 -4 -15 5 -15 3 2 -13
11 -11 23 -18 26 -16 4 2 14 -7 23 -21 21 -31 16 -31 -34 0 -22 14 -44 25 -50
25 -6 0 -8 5 -4 12 5 7 3 8 -5 3 -13 -7 -11 -32 4 -67 5 -13 2 -15 -14 -11
-17 4 -21 1 -21 -16 0 -12 -4 -19 -10 -16 -6 3 -8 16 -4 29 3 15 -2 28 -16 41
-14 13 -19 14 -16 4 3 -8 8 -27 10 -43 l5 -29 -20 22 c-25 26 -33 27 -26 1 3
-13 0 -20 -9 -20 -8 0 -14 6 -14 13 0 8 -9 22 -19 31 -19 17 -20 17 -24 -16
l-4 -33 -1 35 c-2 34 -2 34 -17 12 -9 -12 -19 -45 -22 -74 -3 -29 -9 -55 -13
-58 -4 -3 -22 -51 -39 -108 -24 -73 -32 -117 -29 -151 2 -42 1 -48 -11 -38
-12 10 -14 9 -8 -6 3 -9 2 -17 -3 -17 -6 0 -10 4 -10 10 0 5 -13 7 -30 4 -40
-9 -38 3 2 15 l33 9 -42 1 c-23 1 -43 -4 -45 -11 -3 -7 -28 -12 -64 -12 -57
-1 -59 0 -57 24 1 14 -1 19 -3 13 -4 -9 -11 -9 -29 3 -16 10 -25 12 -30 4 -4
-7 -11 -7 -18 -2 -7 5 -31 16 -55 26 -57 22 -78 10 -86 -48 -8 -48 -21 -65
-48 -61 -10 2 -18 -3 -18 -11 0 -18 11 -18 46 1 32 16 70 22 45 6 -11 -7 -11
-9 0 -13 22 -8 6 -18 -34 -20 -20 -2 -37 -7 -37 -12 0 -5 -12 -6 -27 -3 -24 4
-34 -2 -64 -36 -20 -23 -35 -49 -34 -58 2 -8 -6 -21 -17 -28 -11 -7 -18 -9
-15 -4 6 10 -19 34 -27 25 -7 -6 -29 -12 -53 -14 -7 -1 -13 -5 -13 -10 0 -5
-4 -6 -10 -3 -5 3 -10 1 -10 -5 0 -6 -5 -8 -10 -5 -6 3 -18 -1 -27 -10 -9 -9
-19 -12 -22 -7 -3 5 -15 11 -26 14 -11 3 -29 9 -39 14 -16 6 -18 4 -13 -9 5
-14 2 -16 -18 -11 -15 4 -25 2 -25 -5 0 -6 13 -11 30 -11 34 0 39 -14 10 -30
-16 -9 -20 -8 -20 5 0 8 -4 15 -9 15 -5 0 -9 -90 -10 -200 l-2 -200 206 0
c157 0 205 3 205 13 0 8 4 7 10 -3 9 -13 11 -13 20 0 6 10 10 11 10 3 0 -19
2666 -19 2674 0 5 9 7 9 12 0 4 -10 172 -13 791 -13 666 0 787 2 799 14 11 12
14 58 14 239 l0 225 -32 11 -32 11 32 23 32 22 0 508 c0 506 0 507 -21 507
-16 0 -19 -4 -14 -20 7 -23 6 -24 -29 -10 -16 6 -27 6 -31 -1 -4 -5 -11 -6
-17 -3 -6 4 -14 0 -19 -7 -6 -9 -9 -10 -9 -2 0 6 5 15 10 18 7 4 6 14 -1 28
-12 21 -11 21 8 5 11 -10 23 -18 27 -18 15 0 33 25 28 42 -4 17 -8 19 -29 18
-5 -1 -7 -10 -5 -20 5 -29 -4 -24 -22 12 -18 35 -21 53 -5 24 9 -14 13 -16 20
-5 11 19 -8 38 -32 32 -15 -4 -18 -2 -13 11 3 9 2 16 -2 16 -13 0 -41 -20 -29
-20 6 0 -3 -7 -18 -15 -15 -8 -35 -12 -45 -9 -14 5 -15 4 -2 -5 13 -9 13 -11
0 -11 -12 -1 -11 -3 3 -11 9 -5 21 -8 26 -4 20 12 20 -15 0 -49 -25 -43 -35
-45 -43 -11 -4 14 -11 23 -16 20 -5 -3 -12 4 -15 16 -4 12 -12 18 -21 15 -19
-7 -18 14 2 42 9 14 11 22 4 22 -7 0 -6 6 3 14 8 9 24 12 36 9 20 -5 21 -6 4
-20 -16 -13 -15 -14 16 -9 45 8 50 14 27 32 -16 11 -17 17 -8 26 9 9 12 9 12
0 0 -7 5 -12 12 -12 6 0 8 3 5 7 -4 3 -1 13 5 22 10 13 10 14 -2 4 -10 -10
-17 -10 -27 -1 -11 9 -13 8 -11 -2 2 -7 -3 -15 -9 -17 -7 -3 -13 0 -13 6 0 6
-6 8 -14 5 -20 -8 -28 12 -11 26 9 8 15 8 15 2 0 -6 14 3 31 20 34 34 32 58
-5 58 -16 0 -27 -7 -31 -20 -9 -29 -23 -25 -38 13 -13 30 -12 33 14 60 16 15
26 27 23 27 -4 0 -1 7 6 15 9 11 17 12 30 5 23 -12 33 -13 26 -1 -3 4 1 16 8
27 12 15 16 16 30 5 18 -15 12 -33 -8 -25 -9 3 -13 -1 -13 -13 2 -13 -6 -19
-30 -21 -41 -4 -42 -16 -2 -36 34 -17 49 -14 49 10 0 20 33 17 75 -7 28 -17
33 -24 23 -31 -9 -7 -8 -8 5 -4 21 7 52 -18 42 -34 -3 -5 -13 -10 -22 -10 -13
0 -13 -3 -3 -15 14 -16 60 -21 60 -6 0 5 -8 12 -17 14 -17 4 -17 5 0 6 12 1
17 9 17 30 0 30 -14 41 -53 41 -12 0 -34 8 -49 18 -27 18 -27 18 -8 35 22 19
50 23 50 7 0 -13 30 -13 50 0 13 9 13 11 0 20 -13 9 -13 11 0 21 12 8 8 10
-15 5 -39 -6 -71 11 -38 20 l23 6 -25 20 c-21 17 -38 22 -92 27 -6 0 -18 7
-26 15 -17 17 -87 38 -87 26 0 -5 -7 -7 -15 -4 -9 4 -17 -1 -21 -12 -4 -11
-14 -28 -23 -38 -9 -11 -11 -16 -4 -13 6 4 14 1 16 -5 4 -10 6 -10 6 0 1 6 5
12 10 12 14 0 6 -49 -9 -63 -10 -9 -10 -7 0 8 14 19 14 19 -3 6 -16 -13 -16
-16 -1 -39 15 -22 15 -26 0 -40 -15 -15 -16 -15 -16 1 0 11 -4 15 -12 11 -7
-4 -8 -3 -4 4 3 6 -2 16 -13 21 -14 8 -20 7 -25 -4 -6 -17 -46 -21 -46 -4 0 5
-4 7 -10 4 -5 -3 -10 4 -10 16 0 18 -3 19 -15 9 -8 -6 -19 -9 -25 -5 -19 11
10 35 36 31 13 -3 26 0 29 5 4 5 1 9 -5 9 -7 0 -8 6 -1 19 13 23 3 35 -16 19
-14 -12 -24 -3 -80 71 -9 13 -13 8 -22 -27z m369 -63 c0 -5 -4 -9 -10 -9 -5 0
-10 7 -10 16 0 8 5 12 10 9 6 -3 10 -10 10 -16z m-380 -13 c0 -31 -10 -56 -21
-56 -10 0 -12 63 -2 73 13 14 23 6 23 -17z m-63 -8 c7 -1 10 -5 7 -10 -3 -5 0
-15 6 -23 10 -12 9 -15 -10 -15 -19 0 -20 -2 -10 -15 9 -11 16 -12 25 -5 9 8
15 8 20 0 11 -17 1 -22 -54 -23 -28 -1 -51 -5 -51 -9 0 -8 15 -12 38 -9 6 1
13 -6 13 -16 1 -17 2 -17 6 0 6 23 23 22 23 -2 0 -11 -8 -22 -17 -24 -10 -3
-3 -5 15 -6 31 -1 32 -3 32 -41 0 -41 -10 -49 -40 -30 -9 6 -20 5 -29 -3 -12
-9 -13 -9 -7 1 4 6 2 12 -3 12 -6 0 -11 9 -11 20 0 22 -26 28 -33 8 -3 -10 -7
-10 -17 -1 -10 9 -8 13 11 17 57 12 61 15 22 13 -31 -2 -43 1 -43 11 0 8 6 12
14 9 10 -4 15 5 18 34 3 39 -7 53 -18 24 -9 -24 -33 -18 -47 12 -9 21 -9 27 1
31 14 4 17 32 3 32 -5 0 -11 -5 -13 -12 -5 -13 -28 -2 -28 12 0 9 96 17 140
12 14 -2 30 -4 37 -4z m-237 -8 c0 -5 -7 -7 -15 -4 -8 4 -15 8 -15 10 0 2 7 4
15 4 8 0 15 -4 15 -10z m717 -22 c-3 -8 -6 -5 -6 6 -1 11 2 17 5 13 3 -3 4
-12 1 -19z m-671 -27 c-4 -5 -1 -12 4 -14 6 -3 5 -4 -2 -3 -15 3 -23 26 -8 26
6 0 9 -4 6 -9z m-239 -63 c-3 -8 -6 -5 -6 6 -1 11 2 17 5 13 3 -3 4 -12 1 -19z
m481 -5 c-5 -25 -28 -28 -28 -4 0 12 6 21 16 21 9 0 14 -7 12 -17z m29 -15
c-3 -7 -5 -2 -5 12 0 14 2 19 5 13 2 -7 2 -19 0 -25z m20 0 c-3 -8 -6 -5 -6 6
-1 11 2 17 5 13 3 -3 4 -12 1 -19z m-574 -28 c-3 -11 -7 -20 -9 -20 -2 0 -4 9
-4 20 0 11 4 20 9 20 5 0 7 -9 4 -20z m37 11 c0 -6 -4 -13 -10 -16 -5 -3 -10
1 -10 9 0 9 5 16 10 16 6 0 10 -4 10 -9z m280 -11 c0 -5 -4 -10 -10 -10 -5 0
-10 5 -10 10 0 6 5 10 10 10 6 0 10 -4 10 -10z m-33 -6 c-3 -3 -12 -4 -19 -1
-8 3 -5 6 6 6 11 1 17 -2 13 -5z m-752 -39 c0 -27 -4 -30 -32 -33 -30 -3 -33
-1 -33 26 0 36 8 44 40 40 20 -2 25 -8 25 -33z m1320 25 c-3 -5 -12 -10 -18
-10 -7 0 -6 4 3 10 19 12 23 12 15 0z m-835 -20 c0 -5 -13 -10 -30 -10 -16 0
-30 4 -30 8 0 4 14 9 30 10 17 1 30 -2 30 -8z m300 -88 c0 -5 -7 -9 -15 -9 -8
0 -12 4 -9 9 3 4 9 8 15 8 5 0 9 -4 9 -8z m75 -2 c-3 -5 -11 -10 -16 -10 -6 0
-7 5 -4 10 3 6 11 10 16 10 6 0 7 -4 4 -10z m-218 -6 c-3 -3 -12 -4 -19 -1 -8
3 -5 6 6 6 11 1 17 -2 13 -5z m53 -24 c0 -5 -5 -10 -11 -10 -5 0 -7 5 -4 10 3
6 8 10 11 10 2 0 4 -4 4 -10z m322 -38 c4 -14 -2 -17 -34 -17 -21 0 -38 1 -38
2 0 3 54 32 61 33 4 0 9 -8 11 -18z m-262 -6 c0 -2 -7 -7 -16 -10 -8 -3 -12
-2 -9 4 6 10 25 14 25 6z m330 -16 c0 -5 -2 -10 -4 -10 -3 0 -8 5 -11 10 -3 6
-1 10 4 10 6 0 11 -4 11 -10z m76 -17 c-6 -6 -36 9 -36 18 0 5 9 4 20 -3 10
-7 18 -14 16 -15z m-46 13 c0 -3 -4 -8 -10 -11 -5 -3 -10 -1 -10 4 0 6 5 11
10 11 6 0 10 -2 10 -4z m295 -32 c-1 -24 -8 -40 -20 -46 -15 -9 -17 -8 -12 6
4 9 2 16 -3 16 -6 0 -10 7 -10 16 0 10 6 14 15 10 10 -4 15 1 15 14 0 11 4 20
8 20 5 0 8 -16 7 -36z m-905 -4 c0 -5 -2 -10 -4 -10 -3 0 -8 5 -11 10 -3 6 -1
10 4 10 6 0 11 -4 11 -10z m-104 -35 c-22 -17 -46 -20 -46 -6 0 10 22 18 50
20 11 0 10 -4 -4 -14z m964 6 c0 -12 -20 -25 -27 -18 -7 7 6 27 18 27 5 0 9
-4 9 -9z m38 -97 c0 -13 -7 -21 -17 -21 -38 0 -52 -4 -47 -11 9 -15 -39 -7
-51 8 -15 20 -6 33 21 26 11 -2 29 1 39 9 28 20 55 15 55 -11z m-1058 -24
c-13 -11 -25 -18 -28 -16 -7 8 22 35 37 36 9 0 5 -7 -9 -20z m1080 -27 c-14
-9 -29 -23 -33 -30 -11 -18 -27 -16 -27 2 0 8 -5 15 -11 15 -5 0 -7 5 -4 10 3
6 11 10 16 10 6 0 7 -4 4 -10 -10 -16 13 -12 27 5 7 8 22 14 33 15 17 0 17 -2
-5 -17z m-1218 -7 c10 6 11 4 0 -7 -10 -11 -15 -10 -30 6 -15 17 -15 18 0 6 9
-7 23 -9 30 -5z m258 -3 c-1 -14 -30 -47 -36 -41 -3 4 3 15 13 26 21 23 23 25
23 15z m-290 -28 c0 -18 -26 -20 -36 -3 -4 7 -3 8 4 4 7 -4 12 -2 12 3 0 6 5
11 10 11 6 0 10 -7 10 -15z m170 5 c0 -13 -12 -19 -26 -13 -8 3 -12 8 -9 12 5
10 35 10 35 1z m210 -15 c-7 -9 -15 -13 -19 -10 -3 3 1 10 9 15 21 14 24 12
10 -5z m905 -23 c-2 -3 -12 -1 -22 2 -15 6 -15 9 -3 16 13 8 35 -8 25 -18z
m-965 4 c0 -2 -8 -10 -17 -17 -16 -13 -17 -12 -4 4 13 16 21 21 21 13z m-79
-46 c-13 -11 -29 -20 -36 -20 -7 0 -16 -7 -19 -16 -3 -8 -10 -12 -16 -9 -15 9
-12 25 5 25 8 0 15 4 15 9 0 4 15 13 33 19 45 14 45 14 18 -8z m1051 5 c-4 -5
-6 -23 -7 -40 0 -22 -4 -30 -17 -29 -21 2 -23 -7 -6 -24 21 -21 -4 -35 -38
-21 -35 15 -40 16 -60 18 -13 1 -14 4 -5 15 10 11 8 16 -8 21 -10 3 -21 11
-24 18 -4 10 10 8 50 -5 58 -20 73 -18 73 12 0 20 -32 44 -44 33 -3 -3 -6 -1
-6 5 0 6 19 10 49 9 30 -1 46 -6 43 -12z m-3282 -99 c0 -2 -7 -6 -15 -10 -8
-3 -15 -1 -15 4 0 6 7 10 15 10 8 0 15 -2 15 -4z m2060 0 c0 -3 -4 -8 -10 -11
-5 -3 -10 -1 -10 4 0 6 5 11 10 11 6 0 10 -2 10 -4z m1240 -21 c0 -8 -6 -12
-14 -9 -8 3 -12 12 -9 20 6 17 23 9 23 -11z m-1185 -24 c-3 -12 -10 -21 -15
-21 -4 0 -3 11 3 24 14 29 22 27 12 -3z m-105 -1 c0 -11 -2 -20 -4 -20 -2 0
-6 9 -9 20 -3 11 -1 20 4 20 5 0 9 -9 9 -20z m-210 -9 c0 -10 -8 -11 -62 -12
-16 -1 -28 -5 -28 -10 0 -5 -5 -9 -10 -9 -7 0 -7 6 -1 18 10 18 101 30 101 13z
m1416 -14 c8 3 14 1 14 -5 0 -5 -7 -13 -15 -16 -9 -3 -15 -13 -13 -22 2 -9 -3
-19 -10 -21 -7 -3 -10 1 -6 10 3 8 1 18 -4 21 -6 3 -12 -1 -16 -9 -3 -8 -10
-15 -16 -15 -6 0 -9 4 -5 9 3 6 -9 7 -31 4 -29 -5 -36 -3 -32 8 3 8 15 14 27
13 13 0 20 4 17 12 -7 19 2 22 41 14 19 -5 42 -6 49 -3z m-1046 -39 c0 -7 -7
-21 -14 -31 -12 -16 -14 -15 -12 13 0 17 6 30 13 30 7 0 13 -6 13 -12z m1006
-28 c0 -12 -7 -25 -15 -29 -11 -7 -10 -10 4 -18 9 -5 16 -13 16 -16 -1 -4 2
-8 7 -8 4 -1 13 -11 21 -21 11 -17 11 -22 -2 -35 -14 -15 -16 -14 -22 10 -4
16 -17 29 -33 35 -23 8 -30 5 -45 -17 l-19 -26 8 25 c6 22 5 23 -10 11 -14
-12 -16 -11 -16 5 -1 13 -5 10 -14 -11 l-13 -30 -7 48 c-4 27 -5 51 -2 55 3 3
6 0 6 -7 0 -7 4 -10 9 -6 5 3 12 1 16 -5 10 -16 23 -12 21 7 -1 11 10 19 32
24 19 4 39 12 45 18 14 14 14 14 13 -9z m-1429 -6 c-3 -3 -12 -4 -19 -1 -8 3
-5 6 6 6 11 1 17 -2 13 -5z m79 -25 c19 -21 19 -21 -1 -18 -11 2 -26 0 -32 -4
-16 -10 -17 -37 -2 -37 6 0 9 7 5 15 -3 8 -1 15 4 15 19 0 10 -33 -15 -56 -14
-13 -26 -20 -26 -16 -10 58 0 128 15 103 11 -16 29 -13 22 4 -8 22 8 18 30 -6z
m-119 -5 c-3 -3 -12 -4 -19 -1 -8 3 -5 6 6 6 11 1 17 -2 13 -5z m-1854 -18 c4
-10 1 -13 -9 -9 -15 6 -19 23 -5 23 5 0 11 -7 14 -14z m2360 -58 c-5 -43 -9
-55 -17 -47 -7 7 6 89 14 89 4 0 5 -19 3 -42z m387 3 c0 -5 -10 -11 -22 -14
-22 -6 -22 -6 -4 8 23 17 26 18 26 6z m668 -16 c-16 -13 -28 -31 -28 -40 0
-21 -18 -55 -29 -55 -5 0 -2 20 7 45 8 25 18 45 23 45 5 0 9 7 9 15 0 9 9 15
23 15 21 -1 21 -1 -5 -25z m-68 -40 c0 -8 -7 -15 -15 -15 -9 0 -12 6 -9 15 4
8 10 15 15 15 5 0 9 -7 9 -15z m-1463 -27 c-3 -8 -6 -5 -6 6 -1 11 2 17 5 13
3 -3 4 -12 1 -19z m243 -8 c0 -5 -7 -10 -16 -10 -8 0 -12 5 -9 10 3 6 10 10
16 10 5 0 9 -4 9 -10z m1033 -5 c12 -2 40 0 62 5 34 8 44 6 68 -11 l27 -20 0
21 c0 11 6 20 14 20 17 0 14 -63 -4 -84 -8 -10 -6 -15 10 -19 11 -3 20 -1 20
4 0 5 6 9 14 9 8 0 14 -6 13 -12 -1 -44 3 -48 48 -48 68 0 54 -27 -20 -37 -38
-6 -77 -41 -73 -68 2 -15 9 -19 28 -17 14 2 29 8 35 13 14 14 45 11 45 -5 0
-8 -4 -26 -10 -40 -12 -32 -42 -34 -88 -6 -18 11 -38 19 -45 17 -8 -1 -11 8
-9 27 2 17 -4 36 -15 48 -9 11 -13 18 -8 17 19 -4 85 31 85 46 0 16 -38 29
-67 23 -10 -2 -17 -10 -15 -16 4 -20 -17 -52 -33 -52 -8 0 -15 -5 -15 -11 0
-5 -8 -9 -17 -8 -10 1 -31 -1 -46 -6 -18 -5 -33 -3 -40 4 -8 8 -7 11 6 11 9 0
21 9 27 19 9 18 6 19 -40 18 -27 -1 -50 -5 -50 -9 0 -5 -7 -8 -16 -8 -14 0
-14 -1 0 -16 30 -29 37 -51 21 -64 -19 -16 -34 -5 -28 20 4 14 -2 23 -20 31
-30 14 -61 5 -54 -15 5 -13 -9 -32 -48 -64 -8 -7 -15 -8 -15 -3 0 6 -7 8 -15
5 -9 -4 -15 0 -15 9 0 11 -6 13 -22 9 -21 -5 -21 -6 -2 -13 15 -6 12 -8 -13
-8 -24 -1 -33 -6 -33 -17 0 -14 -3 -14 -15 -4 -13 11 -12 16 12 37 16 14 23
23 17 19 -7 -3 -15 1 -18 9 -4 12 0 15 17 14 29 -3 88 22 84 36 -2 5 -13 11
-25 13 -12 2 -22 8 -22 14 0 6 3 8 7 5 11 -11 33 14 33 38 0 16 15 34 49 59
27 20 53 36 58 36 5 0 26 9 48 20 21 11 49 17 62 15 13 -3 33 -7 46 -10z
m-690 -1 c35 -6 37 -9 35 -40 -2 -27 -7 -34 -23 -35 -19 0 -19 -1 3 -9 17 -7
22 -16 20 -40 -1 -17 -7 -29 -13 -27 -5 2 -9 11 -7 21 2 9 -4 16 -13 16 -10 0
-13 5 -9 12 5 8 -2 9 -24 5 -21 -4 -36 -2 -46 8 -8 8 -22 15 -31 15 -13 0 -13
3 4 22 11 11 18 25 15 30 -16 25 17 33 89 22z m952 -25 c6 -28 1 -48 -10 -37
-3 2 -8 19 -11 36 -8 42 12 43 21 1z m-2175 6 c0 -2 -7 -5 -15 -9 -9 -3 -15 0
-15 9 0 9 6 12 15 9 8 -4 15 -7 15 -9z m597 -21 c-3 -3 -12 -4 -19 -1 -8 3 -5
6 6 6 11 1 17 -2 13 -5z m63 -14 c20 -16 22 -20 8 -20 -10 0 -18 5 -18 10 0 6
-7 10 -15 10 -8 0 -15 5 -15 10 0 15 12 12 40 -10z m195 -9 c6 -1 3 -5 -5 -11
-8 -5 -12 -12 -8 -15 3 -3 12 1 21 9 13 14 15 13 20 -5 4 -14 2 -19 -8 -16 -7
3 -17 1 -22 -4 -6 -6 -14 -4 -23 6 -7 8 -18 15 -24 15 -7 0 -21 7 -32 15 -17
13 -15 14 26 11 25 -2 50 -5 55 -5z m-114 -24 c-10 -9 -11 -8 -5 6 3 10 9 15
12 12 3 -3 0 -11 -7 -18z m31 -19 c-7 -7 -12 -8 -12 -2 0 14 12 26 19 19 2 -3
-1 -11 -7 -17z m-787 -18 c1 -11 -5 -20 -13 -20 -9 0 -12 6 -8 16 3 9 6 21 6
26 0 19 14 -1 15 -22z m-197 -15 c-5 -21 -1 -25 21 -26 21 0 16 -4 -21 -17
-58 -21 -79 -39 -55 -48 17 -6 14 -24 -4 -24 -6 0 -8 4 -5 9 3 5 -1 12 -10 15
-12 4 -15 2 -10 -9 3 -8 0 -15 -7 -16 -9 0 -9 -2 1 -6 6 -2 12 -9 12 -15 0 -6
-6 -6 -15 2 -8 7 -13 16 -10 20 3 5 1 11 -5 15 -5 3 -10 1 -10 -5 0 -6 -4 -8
-10 -5 -5 3 -10 13 -10 21 0 8 5 12 10 9 6 -3 10 -1 10 4 0 6 -8 11 -17 12
-14 0 -15 2 -3 6 8 4 21 13 28 22 11 14 12 14 11 1 -3 -30 1 -39 16 -34 9 4
15 11 14 18 -3 24 2 37 21 56 29 29 54 26 48 -5z m1812 -5 c0 -5 -5 -10 -11
-10 -5 0 -7 5 -4 10 3 6 8 10 11 10 2 0 4 -4 4 -10z m-3395 -20 c8 -13 -5 -13
-25 0 -13 8 -13 10 2 10 9 0 20 -4 23 -10z m1666 -28 c-6 -10 -7 -22 -3 -26 3
-4 1 -11 -6 -15 -7 -4 -14 -18 -15 -29 -1 -12 -5 -22 -10 -22 -11 0 -4 63 12
104 8 21 15 26 22 19 8 -8 8 -17 0 -31z m-1684 2 c-3 -3 -12 -4 -19 -1 -8 3
-5 6 6 6 11 1 17 -2 13 -5z m2119 -9 c-10 -8 -24 -11 -29 -8 -6 4 -2 10 9 14
31 12 40 9 20 -6z m-509 -10 c0 -8 -6 -16 -14 -19 -15 -6 -15 -4 -7 18 8 20
21 21 21 1z m1256 -4 c-2 -6 8 -13 22 -17 14 -3 25 -10 25 -16 0 -5 -4 -6 -10
-3 -5 3 -10 -1 -10 -9 0 -10 -6 -13 -15 -10 -11 4 -12 10 -6 18 11 13 -23 41
-38 32 -4 -3 -8 1 -8 9 0 9 8 13 21 11 12 -2 20 -9 19 -15z m-2920 -15 c6 -16
-23 -30 -97 -46 -72 -16 -66 -6 9 15 63 17 78 28 53 38 -7 3 -3 6 8 6 12 1 24
-5 27 -13z m2789 -9 c-8 -10 -6 -13 10 -14 30 -3 33 -10 15 -31 -22 -24 -22
-39 -1 -18 20 21 30 20 47 -4 8 -11 16 -17 19 -15 3 3 8 -3 11 -14 3 -14 0
-19 -13 -18 -10 1 -17 4 -14 8 2 4 -2 9 -8 12 -23 7 -47 -5 -54 -27 -9 -27
-52 -68 -59 -55 -4 5 -14 5 -26 -1 -10 -6 -19 -7 -19 -3 0 4 -5 2 -12 -5 -8
-8 -8 -15 1 -25 9 -12 4 -16 -30 -21 -23 -4 -44 -4 -47 -1 -7 7 -9 5 72 54 39
22 64 41 57 41 -7 0 -10 4 -7 9 3 5 -1 12 -10 15 -8 3 -13 10 -10 15 3 5 -1
11 -9 15 -26 9 -16 26 14 26 17 0 32 4 36 10 3 5 13 7 23 4 14 -5 14 -4 3 4
-8 6 -22 9 -32 7 -10 -2 -21 0 -24 6 -4 5 0 9 7 9 7 0 24 9 38 20 27 20 40 19
22 -3z m-624 1 c8 -8 15 -8 25 0 17 14 28 6 20 -15 -3 -8 0 -19 8 -23 7 -5 10
-12 6 -16 -4 -4 -13 -1 -20 8 -6 9 -24 18 -39 22 -16 4 -28 13 -28 21 0 18 12
19 28 3z m301 3 c10 -6 10 -10 1 -16 -6 -4 -9 -13 -6 -21 3 -8 1 -14 -4 -14
-6 0 -9 -5 -7 -11 1 -6 -8 -15 -20 -20 -15 -5 -23 -5 -23 2 0 6 -7 9 -15 5 -9
-3 -15 0 -15 10 0 8 -4 12 -10 9 -5 -3 -10 0 -10 7 0 7 14 21 31 30 17 10 27
12 22 5 -13 -22 -14 -49 -1 -45 7 3 13 9 13 14 1 18 17 54 23 54 4 0 13 -4 21
-9z m1349 -8 c-1 -10 1 -24 6 -31 4 -7 5 -16 1 -20 -3 -4 -11 1 -16 11 -6 9
-19 17 -29 17 -25 0 -25 -9 -2 -26 15 -12 15 -15 2 -24 -11 -7 -7 -9 15 -5 20
4 41 -1 64 -15 18 -12 32 -23 30 -25 -2 -2 -26 2 -54 9 -31 8 -62 10 -85 5
-47 -11 -80 -11 -80 0 0 5 8 12 18 14 10 3 6 5 -10 6 -16 0 -28 3 -28 5 0 16
14 36 25 36 7 0 18 7 25 15 8 9 21 13 34 10 15 -5 17 -4 7 3 -23 16 -2 32 40
32 33 0 40 -3 37 -17z m-3498 -8 c0 -1 -9 -5 -20 -8 -12 -3 -20 0 -20 8 0 8 8
11 20 8 11 -3 20 -7 20 -8z m2224 4 c-5 -9 1 -10 21 -5 36 9 122 -3 104 -15
-12 -7 -12 -9 0 -9 8 0 12 -3 8 -6 -3 -3 -20 2 -38 13 -24 13 -33 15 -36 5 -3
-6 -9 -10 -14 -7 -5 4 -8 -4 -8 -17 1 -13 -2 -33 -5 -46 -5 -24 -36 -60 -36
-43 0 6 -11 11 -24 11 -21 0 -61 30 -40 30 5 0 3 4 -5 9 -22 14 22 32 61 26
22 -4 28 -2 19 4 -7 5 -11 13 -7 19 3 6 -4 18 -16 26 l-22 16 22 0 c15 0 21
-4 16 -11z m-2284 -9 c-19 -13 -30 -13 -30 0 0 6 10 10 23 10 18 0 19 -2 7
-10z m1405 -19 c-4 -14 1 -20 17 -25 19 -5 20 -8 8 -16 -11 -7 -11 -10 -2 -10
7 0 10 -4 7 -10 -3 -5 -1 -10 5 -10 6 0 8 -4 5 -10 -10 -16 -35 -12 -29 5 8
21 -22 30 -43 14 -15 -13 -15 -12 -4 9 13 25 5 28 -21 8 -13 -10 -15 -15 -6
-24 9 -9 9 -12 0 -12 -7 0 -12 -8 -12 -17 0 -15 1 -15 13 2 9 11 19 15 26 10
9 -5 10 -10 2 -18 -12 -12 4 -37 23 -37 6 0 3 7 -7 14 -15 12 -15 15 -3 25 11
10 20 10 36 1 15 -8 25 -9 32 -2 6 6 18 8 27 5 11 -4 10 -1 -4 10 -21 17 -14
21 23 10 13 -3 19 -9 13 -12 -6 -4 -2 -12 11 -20 18 -11 20 -11 15 1 -4 11 1
14 21 11 20 -3 23 -2 13 5 -8 6 -11 17 -8 25 7 19 62 16 83 -4 19 -19 8 -49
-18 -49 -10 0 -16 -4 -13 -10 3 -5 -1 -10 -10 -10 -12 0 -15 6 -11 23 3 12 -1
7 -9 -10 -8 -18 -20 -33 -25 -33 -6 0 -9 -3 -9 -7 4 -27 -2 -32 -26 -23 -24 9
-55 4 -55 -9 0 -4 -14 -8 -31 -9 -17 -1 -28 2 -25 7 3 5 -3 7 -14 4 -11 -3
-20 -10 -20 -16 0 -6 -11 0 -25 13 -14 13 -25 18 -25 11 0 -7 -5 -9 -10 -6 -6
3 -8 18 -6 31 8 40 -2 56 -26 43 -17 -9 -18 -8 -9 9 6 11 7 22 4 26 -3 3 2 6
11 6 16 0 15 3 -4 18 l-23 18 34 14 c19 8 37 19 41 24 5 8 8 7 8 -1 0 -6 8 -9
19 -6 12 3 17 11 14 19 -3 9 1 14 12 14 11 0 15 -6 10 -19z m-1340 -19 c-3 -3
-11 0 -18 7 -9 10 -8 11 6 5 10 -3 15 -9 12 -12z m3268 4 c22 -17 22 -30 1
-22 -9 4 -24 1 -32 -6 -13 -11 -15 -10 -9 5 4 10 7 23 7 28 0 13 12 11 33 -5z
m-659 -11 c-8 -19 10 -20 25 -1 13 16 47 11 72 -11 14 -12 17 -12 23 2 5 13
10 14 27 4 20 -10 76 -9 134 4 11 2 14 2 8 0 -13 -4 -15 -9 -17 -35 -1 -7 -5
-16 -11 -20 -5 -4 1 -8 14 -8 16 0 21 -4 17 -15 -3 -8 2 -19 12 -24 15 -9 15
-11 -3 -31 -10 -11 -24 -19 -31 -16 -10 4 -11 -1 -4 -18 10 -27 5 -37 -15 -29
-8 2 -11 11 -8 19 3 8 0 14 -6 14 -7 0 -7 7 1 25 6 14 15 25 20 25 5 0 6 5 2
11 -4 7 -9 8 -13 1 -7 -11 -48 14 -43 26 2 3 -2 8 -9 11 -7 2 -9 -1 -5 -8 5
-7 -1 -11 -13 -11 -12 0 -21 -5 -21 -12 0 -7 -7 -5 -18 5 -10 9 -27 15 -38 13
-12 -2 -27 0 -35 6 -10 7 -7 8 14 5 15 -2 27 0 27 5 0 5 6 6 13 1 6 -4 23 -9
35 -11 17 -2 22 1 16 10 -18 29 -29 35 -51 27 -24 -9 -71 -3 -89 12 -8 6 -17
5 -27 -6 -12 -11 -16 -12 -20 -2 -5 16 3 47 14 47 5 0 6 -7 3 -15z m-2924 1
c0 -2 -13 -6 -29 -8 -17 -2 -28 -1 -25 4 5 8 54 12 54 4z m3265 -14 c-11 -2
-26 -9 -34 -16 -12 -9 -12 -8 -1 10 9 15 19 20 34 16 20 -6 20 -6 1 -10z m135
-1 c0 -17 -18 -21 -24 -6 -3 9 0 15 9 15 8 0 15 -4 15 -9z m-763 -24 c0 -7 -9
-14 -19 -14 -10 -1 -18 3 -18 8 0 6 4 8 9 4 5 -3 12 -1 16 5 8 13 12 13 12 -3z
m53 3 c0 -5 -2 -10 -4 -10 -3 0 -8 5 -11 10 -3 6 -1 10 4 10 6 0 11 -4 11 -10z
m650 -16 c19 -7 28 -13 20 -14 -10 0 -7 -5 8 -15 16 -12 27 -13 40 -6 13 7 22
7 30 -1 9 -9 12 -9 12 0 0 7 -4 12 -10 12 -5 0 -14 10 -21 22 -10 18 -9 20 7
14 10 -4 21 -1 26 6 5 9 11 9 16 3 4 -6 24 -11 45 -11 20 0 37 -4 37 -7 0 -4
0 -12 0 -17 0 -6 -8 -10 -17 -8 -10 2 -19 -4 -20 -12 -3 -10 6 -16 28 -17 21
-2 29 2 26 10 -4 11 19 14 63 8 19 -2 10 -21 -10 -21 -11 0 -20 -4 -20 -10 0
-5 5 -10 12 -10 24 0 -8 -20 -38 -24 -16 -2 -50 -7 -76 -11 -35 -5 -48 -4 -48
5 0 6 9 14 19 17 20 5 38 33 21 33 -6 0 -10 -4 -10 -8 0 -4 -9 -8 -20 -9 -11
-1 -20 2 -20 8 0 5 -5 9 -11 9 -6 0 -9 -6 -6 -13 11 -28 -41 -65 -62 -44 -8 8
-11 7 -11 -6 0 -13 10 -17 43 -18 23 -1 45 -1 49 0 19 2 58 -20 58 -34 0 -15
-36 -16 -73 0 -9 4 -36 4 -60 1 -23 -3 -49 -2 -57 4 -12 8 -10 10 10 10 24 1
25 1 5 16 -11 8 -28 13 -37 10 -10 -2 -20 -1 -23 4 -5 8 32 23 53 21 6 -1 12
3 12 9 0 5 6 10 14 10 8 0 16 7 20 15 6 18 -33 48 -48 36 -31 -24 -89 -21 -80
4 4 10 13 11 27 6 14 -5 32 -2 47 6 18 9 20 13 8 13 -9 0 -20 -5 -23 -10 -9
-15 -25 -2 -25 22 0 15 4 18 18 13 9 -4 33 -14 52 -21z m-910 6 c0 -5 -5 -10
-11 -10 -5 0 -7 5 -4 10 3 6 8 10 11 10 2 0 4 -4 4 -10z m483 -52 c-2 -5 3 -8
11 -8 22 0 28 -16 6 -17 -11 -1 -23 3 -26 9 -4 7 -9 6 -14 -2 -5 -9 -9 -9 -14
-1 -4 6 -1 11 6 11 10 0 10 2 -1 9 -10 7 -7 9 12 8 14 -1 23 -5 20 -9z m-973
-13 c0 -8 -7 -15 -15 -15 -13 0 -14 3 -3 15 16 18 18 18 18 0z m370 11 c0 -2
-7 -7 -16 -10 -8 -3 -12 -2 -9 4 6 10 25 14 25 6z m244 -15 c3 -5 -1 -14 -8
-20 -12 -10 -14 -9 -11 6 2 10 4 19 4 21 2 5 10 2 15 -7z m250 0 c3 -4 -6 -6
-19 -3 -14 2 -25 6 -25 8 0 8 39 4 44 -5z m-3309 -11 c3 -5 -1 -10 -9 -10 -9
0 -16 5 -16 10 0 6 4 10 9 10 6 0 13 -4 16 -10z m2545 -9 c3 -4 16 -12 30 -18
24 -11 24 -12 3 -12 -12 -1 -25 4 -28 9 -4 6 -36 9 -76 8 -38 -2 -69 0 -69 3
0 18 126 27 140 10z m265 -1 c3 -6 -1 -7 -9 -4 -18 7 -21 14 -7 14 6 0 13 -4
16 -10z m1602 4 c-3 -3 -12 -4 -19 -1 -8 3 -5 6 6 6 11 1 17 -2 13 -5z m-1123
-29 c-4 -8 -13 -15 -21 -15 -13 0 -13 3 -3 15 7 8 16 15 21 15 5 0 6 -7 3 -15z
m126 4 c0 -11 -27 -12 -34 -1 -2 4 4 9 15 9 10 1 19 -2 19 -8z m-1324 -22 c11
4 15 2 13 -6 -3 -7 -9 -13 -14 -13 -6 0 -18 -4 -27 -9 -11 -6 -18 -6 -18 0 0
5 -3 17 -7 26 -5 15 -3 16 15 6 11 -6 28 -8 38 -4z m1371 -9 c-3 -8 -6 -5 -6
6 -1 11 2 17 5 13 3 -3 4 -12 1 -19z m-1147 -9 c0 -11 -40 -18 -46 -8 -3 5
-10 6 -16 3 -7 -4 -8 -2 -4 5 8 12 66 12 66 0z m84 -12 c3 4 6 1 6 -5 0 -15
-26 -16 -35 -2 -3 6 -13 10 -21 10 -8 0 -12 -4 -9 -10 3 -5 1 -10 -4 -10 -12
0 -15 23 -5 33 4 3 19 0 34 -8 15 -8 30 -11 34 -8z m-168 -14 c-7 -7 -26 7
-26 19 0 6 6 6 15 -2 9 -7 13 -15 11 -17z m1059 17 c-27 -12 -35 -12 -35 0 0
6 12 10 28 9 24 0 25 -1 7 -9z m-1194 -32 c19 -21 24 -38 13 -38 -4 0 -13 8
-20 18 -10 12 -13 13 -9 2 4 -12 -1 -15 -22 -14 -16 1 -37 -6 -47 -15 -18 -15
-18 -15 -6 9 19 35 40 53 69 59 2 1 12 -9 22 -21z m39 7 c7 -9 8 -15 2 -15 -5
0 -12 7 -16 15 -3 8 -4 15 -2 15 2 0 9 -7 16 -15z m990 0 c11 -13 10 -14 -4
-9 -9 3 -16 10 -16 15 0 13 6 11 20 -6z m50 5 c0 -5 -7 -10 -16 -10 -8 0 -12
5 -9 10 3 6 10 10 16 10 5 0 9 -4 9 -10z m50 6 c0 -2 -9 -6 -20 -9 -11 -3 -18
-1 -14 4 5 9 34 13 34 5z m350 -18 c0 -6 -6 -5 -15 2 -8 7 -15 14 -15 16 0 2
7 1 15 -2 8 -4 15 -11 15 -16z m-160 2 c0 -5 -4 -10 -9 -10 -5 0 -18 -3 -28
-6 -16 -5 -16 -4 1 10 23 18 36 20 36 6z m305 0 c10 8 15 8 20 0 4 -6 4 -14 0
-18 -11 -12 -59 -9 -72 4 -17 16 -4 25 19 13 14 -7 23 -7 33 1z m-65 -29 c0
-6 -4 -12 -9 -15 -13 -8 -42 4 -35 15 7 12 44 12 44 0z m235 -1 c3 -5 -1 -10
-10 -10 -9 0 -13 5 -10 10 3 6 8 10 10 10 2 0 7 -4 10 -10z m-1532 -7 c-7 -2
-19 -2 -25 0 -7 3 -2 5 12 5 14 0 19 -2 13 -5z m1579 -25 c-6 -6 -15 -7 -22
-3 -8 5 -6 11 7 20 20 15 32 0 15 -17z m-139 2 c19 0 27 -4 22 -9 -16 -15 -58
-15 -87 -1 -34 16 -27 33 8 20 14 -6 39 -10 57 -10z m181 13 c4 -5 13 -8 19
-8 7 0 12 -4 12 -10 1 -27 39 -65 66 -65 15 0 31 -4 34 -10 4 -6 -10 -10 -36
-10 -56 0 -136 45 -118 66 6 7 9 21 5 29 -6 16 5 20 18 8z m-1757 -19 c-3 -3
-12 -4 -19 -1 -8 3 -5 6 6 6 11 1 17 -2 13 -5z m183 -35 c0 -5 5 -7 10 -4 6 4
16 2 23 -3 7 -5 21 -11 31 -13 10 -2 20 -14 22 -25 3 -20 0 -21 -34 -17 -47 6
-55 13 -14 13 17 0 34 5 38 12 4 7 3 8 -4 4 -7 -4 -18 -4 -24 1 -7 4 -17 8
-23 9 -5 1 -26 9 -45 18 -34 15 -34 15 -7 16 15 0 27 -5 27 -11z m-77 -6 c-7
-2 -19 -2 -25 0 -7 3 -2 5 12 5 14 0 19 -2 13 -5z m-278 -12 c3 -5 2 -12 -3
-15 -5 -3 -9 1 -9 9 0 17 3 19 12 6z m490 -1 c3 -5 1 -10 -4 -10 -6 0 -11 5
-11 10 0 6 2 10 4 10 3 0 8 -4 11 -10z m552 -4 c0 -8 -6 -12 -14 -9 -7 3 -10
9 -7 14 8 14 21 11 21 -5z m90 7 c-4 -3 -2 -12 4 -20 7 -8 8 -13 1 -13 -12 0
-23 26 -15 34 4 3 9 6 11 6 3 0 2 -3 -1 -7z m-1947 -13 c13 -9 13 -10 0 -9 -8
0 -24 4 -35 9 l-20 9 20 0 c11 0 27 -4 35 -9z m1398 -40 c4 -12 2 -13 -9 -4
-8 7 -23 14 -34 17 -13 4 -9 5 9 4 16 -1 32 -9 34 -17z m147 -40 c3 -5 1 -10
-4 -10 -6 0 -11 5 -11 10 0 6 2 10 4 10 3 0 8 -4 11 -10z"/>
<path d="M4050 1860 c0 -5 7 -10 16 -10 8 0 12 5 9 10 -3 6 -10 10 -16 10 -5
0 -9 -4 -9 -10z"/>
<path d="M4500 1090 c0 -5 5 -10 11 -10 5 0 7 5 4 10 -3 6 -8 10 -11 10 -2 0
-4 -4 -4 -10z"/>
<path d="M4286 783 c-8 -8 -13 -9 -42 -12 -15 -1 -15 -3 -1 -25 15 -22 15 -25
-1 -31 -25 -9 3 -23 35 -17 18 3 21 7 11 13 -10 7 -9 9 5 9 10 0 20 -7 23 -15
7 -17 40 -20 49 -5 4 6 12 10 18 9 30 -4 47 2 47 16 0 8 7 15 15 15 21 0 19
20 -2 21 -10 0 -42 4 -70 8 -34 5 -53 4 -53 -3 0 -5 -6 -2 -13 8 -7 9 -16 13
-21 9z m96 -45 c-9 -9 -15 -9 -24 0 -9 9 -7 12 12 12 19 0 21 -3 12 -12z"/>
<path d="M4477 766 c-7 -16 1 -26 20 -26 7 0 13 9 13 20 0 23 -25 27 -33 6z"/>
<path d="M4125 730 c-4 -7 3 -8 22 -4 38 9 42 14 10 14 -14 0 -29 -5 -32 -10z"/>
<path d="M4436 694 c-4 -9 -4 -19 -1 -22 2 -3 7 3 11 12 4 9 4 19 1 22 -2 3
-7 -3 -11 -12z"/>
<path d="M3640 804 c0 -8 5 -12 10 -9 6 3 10 10 10 16 0 5 -4 9 -10 9 -5 0
-10 -7 -10 -16z"/>
<path d="M3685 811 c-3 -5 -1 -12 5 -16 5 -3 10 1 10 9 0 18 -6 21 -15 7z"/>
<path d="M2210 670 c-8 -5 -11 -12 -7 -16 4 -4 13 -2 19 4 15 15 7 24 -12 12z"/>
<path d="M3364 529 c-3 -6 -1 -16 4 -21 8 -8 11 -5 9 11 -1 24 -3 25 -13 10z"/>
<path d="M3323 506 c5 -15 24 -18 24 -3 0 8 -6 14 -14 14 -7 0 -12 -5 -10 -11z"/>
<path d="M3371 464 c0 -11 3 -14 6 -6 3 7 2 16 -1 19 -3 4 -6 -2 -5 -13z"/>
<path d="M3235 380 c-3 -6 1 -7 9 -4 18 7 21 14 7 14 -6 0 -13 -4 -16 -10z"/>
<path d="M3138 493 c7 -3 16 -2 19 1 4 3 -2 6 -13 5 -11 0 -14 -3 -6 -6z"/>
<path d="M2465 460 c3 -5 10 -10 16 -10 5 0 9 5 9 10 0 6 -7 10 -16 10 -8 0
-12 -4 -9 -10z"/>
<path d="M2285 438 c-17 -10 -37 -23 -45 -28 -12 -7 -13 -11 -2 -21 9 -10 12
-10 12 -1 0 7 5 12 11 12 5 0 7 -4 4 -10 -3 -5 1 -10 9 -10 9 0 16 5 16 11 0
6 5 7 13 2 19 -12 37 -12 37 -1 0 6 6 8 14 5 9 -4 13 2 12 17 -2 35 -43 47
-81 24z"/>
<path d="M2205 410 c-3 -5 -1 -10 4 -10 6 0 11 5 11 10 0 6 -2 10 -4 10 -3 0
-8 -4 -11 -10z"/>
<path d="M3596 521 c-3 -5 1 -11 9 -14 9 -4 12 -1 8 9 -6 16 -10 17 -17 5z"/>
<path d="M3748 483 c7 -3 16 -2 19 1 4 3 -2 6 -13 5 -11 0 -14 -3 -6 -6z"/>
<path d="M1804 2094 c-9 -4 -6 -26 10 -77 17 -57 26 -73 43 -75 17 -3 24 6 40
53 l19 57 18 -57 c15 -47 21 -56 38 -53 17 2 26 18 44 76 l22 72 -23 0 c-19 0
-24 -7 -30 -40 -4 -22 -10 -40 -14 -40 -4 0 -13 18 -20 40 -10 32 -16 40 -36
40 -20 0 -26 -8 -36 -40 -7 -22 -15 -40 -19 -40 -4 0 -11 19 -16 42 -9 41 -18
51 -40 42z"/>
<path d="M2050 2015 c0 -68 2 -75 20 -75 16 0 20 7 20 33 0 41 13 62 34 54 11
-4 16 -19 16 -47 0 -33 3 -40 20 -40 17 0 20 7 20 50 0 56 -20 75 -66 64 -24
-6 -26 -5 -21 15 4 17 1 21 -19 21 -23 0 -24 -2 -24 -75z"/>
<path d="M2780 2015 c0 -68 2 -75 20 -75 18 0 20 7 20 75 0 68 -2 75 -20 75
-18 0 -20 -7 -20 -75z"/>
<path d="M2940 2070 c0 -17 -7 -20 -40 -20 -34 0 -42 -4 -52 -26 -10 -21 -9
-31 3 -52 13 -24 21 -27 69 -27 l55 0 3 73 c3 67 1 72 -18 72 -13 0 -20 -7
-20 -20z m-2 -66 c4 -29 -23 -51 -43 -34 -16 13 -20 42 -8 54 14 14 48 1 51
-20z"/>
<path d="M3082 2018 c2 -59 6 -73 20 -76 12 -2 17 5 20 30 3 30 6 33 38 33 29
0 35 -4 36 -22 2 -40 4 -43 18 -43 10 0 15 16 18 59 4 73 0 91 -18 91 -13 0
-16 -5 -18 -40 -1 -10 -12 -15 -36 -15 -31 0 -35 3 -38 28 -2 19 -9 27 -23 27
-18 0 -20 -6 -17 -72z"/>
<path d="M3273 2078 c2 -7 10 -13 17 -13 7 0 15 6 18 13 2 7 -5 12 -18 12 -13
0 -20 -5 -17 -12z"/>
<path d="M2243 2050 c-31 -13 -45 -43 -34 -73 17 -44 78 -51 116 -13 27 27 24
58 -8 81 -24 17 -42 18 -74 5z m62 -40 c7 -23 -10 -50 -32 -50 -18 0 -34 41
-21 58 16 19 46 14 53 -8z"/>
<path d="M2626 2028 c-21 -30 -20 -44 4 -68 41 -41 120 -16 120 38 0 32 -27
52 -70 52 -29 0 -43 -6 -54 -22z m83 -17 c7 -13 6 -23 -3 -36 -23 -32 -67 2
-52 40 8 21 43 19 55 -4z"/>
<path d="M3272 1998 c2 -41 7 -54 21 -56 14 -3 17 5 17 52 0 50 -2 56 -21 56
-18 0 -20 -5 -17 -52z"/>
<path d="M3344 2036 c-10 -27 3 -43 42 -50 28 -6 34 -10 25 -19 -9 -9 -16 -9
-31 1 -26 16 -40 15 -40 -3 0 -31 95 -33 114 -2 9 15 7 21 -8 33 -11 8 -30 14
-42 14 -13 0 -26 5 -30 12 -5 8 5 9 35 4 33 -5 42 -3 39 6 -7 20 -97 23 -104
4z"/>
<path d="M1915 1960 c3 -5 8 -10 11 -10 2 0 4 5 4 10 0 6 -5 10 -11 10 -5 0
-7 -4 -4 -10z"/>
<path d="M4650 1911 c0 -6 5 -13 10 -16 6 -3 10 1 10 9 0 9 -4 16 -10 16 -5 0
-10 -4 -10 -9z"/>
<path d="M2290 1900 c0 -5 5 -10 10 -10 6 0 10 5 10 10 0 6 -4 10 -10 10 -5 0
-10 -4 -10 -10z"/>
<path d="M3785 1877 c-4 -10 -5 -21 -1 -24 10 -10 18 4 13 24 -4 17 -4 17 -12
0z"/>
<path d="M1820 1720 l0 -140 35 0 35 0 0 55 0 55 45 0 c41 0 45 2 45 25 0 23
-4 25 -45 25 -45 0 -45 0 -45 35 l0 35 50 0 c47 0 50 2 50 25 0 25 -1 25 -85
25 l-85 0 0 -140z"/>
<path d="M2030 1755 c0 -87 -3 -105 -15 -105 -8 0 -15 -5 -15 -11 0 -6 7 -9
15 -5 11 4 15 -2 15 -24 l0 -30 85 0 85 0 0 30 c0 29 -1 30 -50 30 -47 0 -50
2 -50 25 0 23 4 25 45 25 43 0 45 1 45 30 0 29 -2 30 -45 30 -43 0 -45 1 -45
30 0 29 1 30 50 30 47 0 50 2 50 25 0 25 -1 25 -85 25 l-85 0 0 -105z"/>
<path d="M2240 1720 l0 -140 35 0 35 0 0 50 c0 73 29 64 75 -25 8 -14 23 -21
53 -23 l43 -3 -23 41 c-13 23 -32 51 -43 63 l-20 22 23 20 c33 30 38 74 12
108 -20 26 -26 27 -106 27 l-84 0 0 -140z m129 76 c18 -22 -3 -56 -34 -56 -22
0 -25 4 -25 35 0 30 3 35 24 35 13 0 29 -6 35 -14z"/>
<path d="M2501 1720 l-1 -140 35 0 35 0 0 55 c0 53 1 55 21 45 11 -7 33 -31
47 -56 l27 -43 71 -1 72 0 6 30 c5 29 8 30 56 30 48 0 52 -2 61 -30 10 -26 16
-30 50 -30 36 0 39 2 34 23 -3 12 -11 51 -19 87 -8 37 -14 53 -15 37 -2 -44
-15 -25 -41 57 l-24 76 -40 0 -41 0 -34 -92 c-18 -50 -41 -110 -50 -132 l-17
-40 -34 52 c-18 29 -37 52 -41 52 -4 0 6 13 22 29 36 36 37 73 4 106 -21 22
-33 25 -103 25 l-79 0 -2 -140z m136 74 c9 -24 -10 -49 -41 -52 -24 -3 -26 0
-26 32 0 33 2 36 30 36 19 0 33 -6 37 -16z m262 -86 c1 -14 -7 -18 -30 -18
-28 0 -31 2 -25 25 3 13 11 37 17 52 l11 28 13 -35 c8 -19 14 -43 14 -52z"/>
<path d="M4627 1843 c-4 -3 -7 -11 -7 -17 0 -6 5 -5 12 2 6 6 9 14 7 17 -3 3
-9 2 -12 -2z"/>
<path d="M4507 1766 c-4 -10 -1 -13 9 -9 15 6 19 23 5 23 -5 0 -11 -7 -14 -14z"/>
<path d="M3428 1666 c8 -28 29 -49 37 -36 4 6 11 8 16 4 7 -4 9 5 7 22 -2 24
-8 29 -34 30 -27 1 -31 -1 -26 -20z"/>
<path d="M4435 1630 c4 -6 11 -8 16 -5 14 9 11 15 -7 15 -8 0 -12 -5 -9 -10z"/>
<path d="M4496 1563 c-6 -14 -5 -15 5 -6 7 7 10 15 7 18 -3 3 -9 -2 -12 -12z"/>
<path d="M3180 1568 c-6 -22 -5 -34 2 -45 6 -7 2 -14 -12 -18 -11 -3 -18 -10
-15 -15 3 -4 -2 -13 -9 -20 -11 -9 -20 -8 -38 1 -13 8 -42 14 -64 15 -35 1
-44 -2 -53 -23 -6 -13 -18 -26 -27 -30 -12 -4 -13 -7 -3 -14 9 -5 23 3 42 24
16 18 24 25 18 16 -12 -18 -5 -49 11 -49 6 0 5 -6 -2 -15 -18 -21 -7 -19 20 5
16 14 27 17 39 11 9 -6 23 -6 33 0 14 7 16 6 12 -6 -9 -21 10 -19 37 6 13 11
17 19 9 16 -8 -2 -21 2 -28 9 -11 12 -9 14 11 14 12 0 28 -5 35 -12 9 -9 12
-2 12 35 0 38 3 47 18 48 11 0 12 2 4 6 -10 4 -10 8 0 21 11 13 10 14 -14 9
-17 -5 -28 -3 -31 6 -3 6 -6 9 -7 5z"/>
<path d="M238 1553 c7 -3 16 -2 19 1 4 3 -2 6 -13 5 -11 0 -14 -3 -6 -6z"/>
<path d="M3756 1553 c-20 -3 -25 -7 -17 -13 16 -9 51 -1 51 11 0 5 -1 8 -2 8
-2 -1 -16 -4 -32 -6z"/>
<path d="M60 1465 c-9 -10 -9 -19 -2 -27 6 -7 8 -26 5 -41 -5 -23 -10 -28 -26
-23 -15 4 -17 2 -8 -7 14 -14 15 -54 1 -62 -6 -3 -7 1 -4 9 4 11 0 16 -11 16
-14 0 -16 -11 -14 -89 2 -50 6 -88 11 -85 4 3 8 0 8 -5 0 -6 -4 -11 -10 -11
-6 0 -10 -43 -10 -110 0 -103 8 -134 25 -92 7 16 8 15 16 -3 7 -16 9 -14 6 12
-3 24 1 33 15 36 10 3 21 0 25 -5 4 -7 1 -8 -7 -3 -8 5 -11 3 -8 -6 5 -15 68
-27 106 -20 19 3 21 6 10 19 -9 11 -9 13 -1 9 6 -4 14 -3 18 3 4 6 -8 10 -29
10 -19 0 -38 -5 -42 -11 -4 -7 -10 -7 -16 -1 -17 17 1 33 29 26 17 -5 24 -3
20 3 -4 6 0 14 9 17 22 8 24 8 24 -8 0 -19 37 -27 51 -10 6 8 15 11 20 8 14
-8 50 6 44 17 -4 5 -15 9 -26 9 -10 0 -19 5 -19 10 0 6 8 10 18 10 10 0 13 3
6 8 -17 11 -24 40 -11 45 7 2 20 0 30 -5 9 -5 21 -7 25 -4 4 3 13 -4 20 -14 9
-15 9 -19 -1 -16 -6 1 -9 1 -4 -1 4 -3 7 -10 7 -18 0 -7 7 -18 15 -25 8 -7 12
-16 9 -21 -7 -12 5 -49 15 -49 5 0 8 20 7 44 -1 28 -5 42 -12 39 -7 -2 -15 1
-19 7 -4 7 5 10 29 8 19 -1 33 -5 30 -9 -8 -14 18 -21 29 -9 9 10 9 14 -1 17
-10 4 -10 8 -1 19 7 8 9 17 5 21 -3 3 -6 1 -6 -5 0 -7 -8 -12 -19 -12 -19 0
-36 36 -20 45 4 3 6 12 3 20 -4 8 -10 12 -15 9 -5 -3 -9 0 -9 7 0 7 -3 10 -6
6 -4 -3 -23 1 -43 9 -23 10 -37 11 -39 4 -2 -5 -8 -8 -12 -5 -5 3 -7 12 -3 20
3 9 -1 15 -8 15 -11 0 -11 3 1 10 10 7 -4 9 -47 6 -35 -2 -60 0 -57 5 3 5 -3
6 -12 2 -12 -4 -15 -2 -12 8 3 10 19 14 52 13 38 -2 45 1 36 11 -9 11 -7 12 9
8 12 -3 21 -1 21 6 0 9 6 8 23 -1 40 -22 57 -20 57 7 0 27 -9 32 -28 13 -8 -8
-15 -8 -27 2 -12 10 -18 10 -32 -1 -15 -12 -16 -12 -8 1 4 8 17 26 29 40 19
23 18 22 -10 -2 -31 -28 -51 -37 -38 -17 4 7 -1 7 -16 -1 -20 -11 -21 -10 -15
12 6 19 5 21 -6 11 -7 -7 -21 -13 -31 -13 -10 0 -18 -4 -18 -10 0 -5 -8 -10
-17 -10 -20 1 -59 48 -48 58 3 3 10 0 15 -8 7 -11 10 -12 10 -2 0 9 7 11 21 7
14 -5 19 -4 15 4 -5 7 -1 9 9 5 12 -5 13 -9 4 -20 -8 -9 -8 -14 -1 -14 6 0 14
5 17 10 4 6 11 8 16 5 5 -4 9 0 9 7 0 10 2 10 9 -1 8 -12 11 -12 23 0 8 8 13
20 10 28 -3 8 0 11 5 8 6 -4 19 0 29 9 18 14 17 14 -5 3 -21 -10 -23 -9 -18 5
4 10 3 15 -2 11 -5 -3 -11 -2 -14 2 -2 5 -3 3 -1 -3 1 -6 -2 -17 -6 -24 -7
-11 -14 -11 -34 -2 -16 7 -27 8 -31 1 -7 -10 -63 -7 -83 5 -10 6 -10 11 -1 22
10 12 10 15 -1 12 -8 -2 -16 5 -18 16 -3 13 0 16 9 11 8 -5 10 -4 5 3 -9 15
-11 15 -26 -3z m3 -140 c-3 -9 -8 -14 -10 -11 -3 3 -2 9 2 15 9 16 15 13 8 -4z
m131 -40 c-4 -8 -10 -12 -15 -9 -11 6 -2 24 11 24 5 0 7 -7 4 -15z m30 -10
c-4 -8 -11 -15 -16 -15 -6 0 -5 6 2 15 7 8 14 15 16 15 2 0 1 -7 -2 -15z
m-187 -50 c-9 -19 -13 -21 -15 -9 -3 13 12 33 25 34 0 0 -4 -11 -10 -25z m83
0 c0 -1 -13 -2 -30 -1 -16 1 -30 6 -30 13 0 9 8 9 30 2 17 -6 30 -12 30 -14z
m30 5 c0 -5 -5 -10 -11 -10 -5 0 -7 5 -4 10 3 6 8 10 11 10 2 0 4 -4 4 -10z
m130 -40 c0 -5 -2 -10 -4 -10 -3 0 -8 5 -11 10 -3 6 -1 10 4 10 6 0 11 -4 11
-10z m-141 -81 c-22 -14 -33 -10 -19 6 7 8 17 12 22 9 6 -4 5 -10 -3 -15z m91
-1 c0 -4 -6 -8 -14 -8 -8 0 -17 4 -20 8 -2 4 4 8 15 8 10 0 19 -4 19 -8z"/>
<path d="M7 1463 c-4 -3 -7 -11 -7 -17 0 -6 5 -5 12 2 6 6 9 14 7 17 -3 3 -9
2 -12 -2z"/>
<path d="M160 1440 c0 -13 5 -17 20 -13 11 3 20 9 20 13 0 4 -9 10 -20 13 -15
4 -20 0 -20 -13z"/>
<path d="M1218 1440 c6 -8 12 -22 12 -32 0 -9 5 -29 12 -43 9 -21 18 -25 54
-25 33 0 46 5 58 22 9 12 16 27 16 33 0 16 -98 44 -104 31 -2 -6 -5 -3 -5 7
-1 18 -21 24 -21 6 0 -8 -6 -7 -17 2 -15 11 -16 11 -5 -1z"/>
<path d="M5 1420 c3 -5 15 -10 26 -10 10 0 19 5 19 10 0 6 -12 10 -26 10 -14
0 -23 -4 -19 -10z"/>
<path d="M2853 1413 c-13 -2 -23 -11 -23 -19 0 -8 -7 -17 -16 -21 -13 -5 -13
-7 -2 -14 9 -6 7 -9 -9 -9 -14 0 -23 -6 -23 -16 0 -10 5 -14 15 -10 11 4 15 0
13 -11 -4 -23 21 -28 29 -6 3 10 11 21 17 25 6 4 5 12 -3 22 -11 13 -11 16 0
16 12 0 12 2 1 9 -10 6 -7 10 12 15 22 5 39 28 19 25 -5 -1 -18 -4 -30 -6z"/>
<path d="M3195 1400 c-3 -5 -1 -10 4 -10 6 0 11 5 11 10 0 6 -2 10 -4 10 -3 0
-8 -4 -11 -10z"/>
<path d="M3078 1383 c-10 -2 -18 -8 -18 -13 0 -10 38 -1 46 11 5 9 1 10 -28 2z"/>
<path d="M3160 1379 c0 -5 5 -7 10 -4 6 3 10 8 10 11 0 2 -4 4 -10 4 -5 0 -10
-5 -10 -11z"/>
<path d="M2957 1360 c-3 -11 -1 -20 4 -20 5 0 9 9 9 20 0 11 -2 20 -4 20 -2 0
-6 -9 -9 -20z"/>
<path d="M384 1348 l-19 -23 23 19 c21 18 27 26 19 26 -2 0 -12 -10 -23 -22z"/>
<path d="M3246 1345 c-3 -8 -1 -15 3 -15 5 0 11 7 15 15 3 8 1 15 -3 15 -5 0
-11 -7 -15 -15z"/>
<path d="M325 1340 c-3 -6 1 -7 9 -4 18 7 21 14 7 14 -6 0 -13 -4 -16 -10z"/>
<path d="M3125 1326 c-14 -16 -17 -36 -5 -36 12 0 32 37 23 43 -5 3 -12 0 -18
-7z"/>
<path d="M2926 1309 c-15 -9 -16 -13 -5 -20 18 -11 31 -11 49 1 13 9 13 11 0
20 -19 12 -21 12 -44 -1z m29 -9 c-3 -5 -11 -10 -16 -10 -6 0 -7 5 -4 10 3 6
11 10 16 10 6 0 7 -4 4 -10z"/>
<path d="M2996 1303 c-6 -14 -5 -15 5 -6 7 7 10 15 7 18 -3 3 -9 -2 -12 -12z"/>
<path d="M372 1298 c2 -6 19 -13 36 -15 25 -3 32 0 32 13 0 13 -3 14 -15 4
-10 -9 -15 -9 -15 -1 0 6 -9 11 -21 11 -12 0 -19 -5 -17 -12z"/>
<path d="M2763 1294 c-4 -12 -7 -13 -14 -3 -4 8 -11 10 -14 7 -8 -8 3 -28 15
-28 5 0 14 9 20 20 6 11 8 20 5 20 -3 0 -8 -7 -12 -16z"/>
<path d="M450 1289 c0 -5 5 -7 10 -4 6 3 10 8 10 11 0 2 -4 4 -10 4 -5 0 -10
-5 -10 -11z"/>
<path d="M3220 1285 c0 -8 4 -15 8 -15 5 0 9 7 9 15 0 8 -4 15 -9 15 -4 0 -8
-7 -8 -15z"/>
<path d="M2886 1271 c-4 -6 -3 -11 2 -11 5 0 2 -21 -6 -46 -10 -32 -12 -52 -5
-62 15 -25 33 -26 33 -2 0 12 4 18 10 15 14 -9 1 47 -13 56 -5 4 -7 13 -4 21
7 19 -8 44 -17 29z m16 -93 c-8 -8 -9 -4 -5 13 4 13 8 18 11 10 2 -7 -1 -18
-6 -23z"/>
<path d="M2970 1248 c0 -6 3 -8 7 -5 3 4 15 -1 26 -10 19 -18 19 -17 6 5 -15
23 -39 30 -39 10z"/>
<path d="M2738 1223 c-20 -5 -24 -18 -9 -28 6 -3 15 4 21 15 6 11 9 19 8 19
-2 -1 -11 -3 -20 -6z"/>
<path d="M2770 1205 c0 -14 -5 -25 -11 -25 -6 0 -8 -9 -4 -20 3 -11 2 -20 -4
-20 -5 0 -13 9 -16 20 -3 11 -13 20 -21 20 -17 0 -19 -27 -1 -33 6 -2 5 -3 -3
-2 -9 1 -21 -4 -28 -11 -9 -10 -7 -14 10 -20 12 -4 28 -12 35 -20 11 -10 10
-13 -4 -16 -15 -3 -15 -4 1 -20 10 -10 14 -18 9 -18 -5 0 -15 6 -21 12 -10 10
-15 10 -22 -2 -12 -19 -4 -29 20 -23 11 3 20 0 20 -6 0 -6 -8 -11 -17 -11 -19
-1 -61 -50 -43 -50 15 0 9 -42 -7 -47 -7 -3 -9 4 -6 19 3 13 2 20 -2 16 -4 -4
-9 -27 -11 -50 -3 -41 -3 -42 11 -18 12 22 14 23 21 7 4 -12 0 -23 -12 -32
-18 -13 -16 -14 18 -15 24 0 41 -6 48 -17 11 -17 11 -17 6 -1 -8 26 10 31 44
13 17 -9 30 -11 30 -5 0 5 15 10 34 10 25 0 40 7 55 26 19 24 19 28 5 49 -13
20 -21 23 -46 18 -22 -4 -29 -3 -24 5 4 7 14 12 22 12 25 0 76 30 71 43 -2 7
0 20 5 30 12 24 -1 21 -23 -5 -19 -21 -20 -21 -34 -2 -8 10 -12 26 -10 34 4
10 1 9 -9 -3 -10 -13 -15 -15 -18 -5 -3 7 7 23 21 35 21 19 23 23 9 23 -10 0
-18 -4 -18 -10 0 -5 -4 -10 -10 -10 -5 0 -7 13 -4 29 7 31 -13 53 -27 30 -4
-7 -11 -10 -15 -6 -4 4 -2 13 4 19 15 15 15 51 0 66 -19 19 -28 14 -28 -13z
m95 -215 c-3 -5 -12 -10 -18 -10 -7 0 -6 4 3 10 19 12 23 12 15 0z m-135 -21
c0 -11 -4 -17 -10 -14 -5 3 -10 1 -10 -5 0 -6 -5 -8 -11 -5 -7 5 -4 14 7 26
22 24 24 24 24 -2z"/>
<path d="M2950 1219 c0 -5 5 -7 10 -4 6 3 10 8 10 11 0 2 -4 4 -10 4 -5 0 -10
-5 -10 -11z"/>
<path d="M3190 1219 c0 -5 5 -7 10 -4 6 3 10 8 10 11 0 2 -4 4 -10 4 -5 0 -10
-5 -10 -11z"/>
<path d="M442 1170 c0 -14 2 -19 5 -12 2 6 2 18 0 25 -3 6 -5 1 -5 -13z"/>
<path d="M1216 1167 c3 -10 9 -15 12 -12 3 3 0 11 -7 18 -10 9 -11 8 -5 -6z"/>
<path d="M455 1140 c-7 -11 10 -19 37 -17 14 0 15 3 7 14 -13 15 -35 17 -44 3z"/>
<path d="M2854 1137 c-8 -22 -1 -30 21 -25 14 3 14 5 1 23 -14 19 -15 19 -22
2z"/>
<path d="M2544 1076 l-42 -41 32 1 c17 0 39 -7 49 -15 16 -13 17 -13 11 2 -4
12 -2 16 8 12 9 -4 20 5 28 22 8 15 16 32 19 37 2 5 -1 6 -8 2 -6 -4 -18 0
-27 8 -20 21 -22 20 -70 -28z"/>
<path d="M2440 1103 c-16 -6 -40 -32 -40 -44 0 -4 23 -7 50 -7 28 -1 50 3 50
7 0 7 -38 52 -43 50 -1 0 -9 -3 -17 -6z"/>
<path d="M2896 1043 c-6 -14 -5 -15 5 -6 7 7 10 15 7 18 -3 3 -9 -2 -12 -12z"/>
<path d="M488 1043 c-11 -3 -18 -14 -18 -29 0 -26 7 -29 30 -13 11 8 12 12 2
16 -17 7 -5 23 13 16 8 -3 15 0 15 6 0 11 -11 12 -42 4z"/>
<path d="M2640 1031 c0 -10 -7 -22 -16 -25 -9 -3 -14 -12 -11 -19 6 -15 -12
-32 -35 -33 -36 -3 -38 -4 -18 -24 24 -24 30 -25 30 -5 0 8 5 15 10 15 6 0 10
-5 10 -11 0 -8 5 -7 15 1 9 7 14 18 12 24 -2 6 3 17 12 24 9 8 10 11 4 7 -7
-3 -18 -3 -24 1 -16 10 12 25 34 18 20 -6 23 16 5 34 -17 17 -28 15 -28 -7z"/>
<path d="M2434 1018 c1 -13 7 -23 12 -23 5 0 10 10 12 23 2 15 -2 22 -12 22
-11 0 -15 -7 -12 -22z"/>
<path d="M333 1006 c0 -8 5 -13 11 -10 6 3 0 -4 -14 -15 -16 -13 -20 -21 -10
-21 11 0 11 -3 2 -12 -19 -19 -14 -25 21 -31 50 -7 82 14 38 26 -13 3 -21 15
-23 38 -3 32 -25 54 -25 25z"/>
<path d="M438 970 c2 -30 9 -56 13 -58 18 -7 8 -19 -13 -16 -56 8 -168 10
-180 3 -23 -14 3 -24 65 -25 34 -1 80 -2 102 -4 39 -2 39 -3 10 -10 -18 -5
-23 -8 -11 -9 11 0 17 -4 13 -7 -3 -3 -36 -1 -74 6 -39 6 -133 10 -218 8
l-150 -3 35 -18 35 -18 -32 5 -33 6 0 -61 0 -60 78 3 c81 3 85 7 71 57 -3 10
9 14 46 15 38 1 50 5 53 18 2 12 -5 18 -30 21 -30 3 -30 4 8 5 39 2 41 1 36
-23 -4 -25 11 -35 23 -15 3 6 16 11 28 11 17 1 15 3 -8 9 -30 8 -30 8 8 9 30
1 39 -3 47 -21 l9 -23 0 23 c1 15 5 22 14 18 6 -3 20 -9 30 -12 9 -4 17 -10
17 -14 0 -4 9 -10 21 -13 12 -3 18 -10 15 -16 -4 -5 -1 -13 5 -17 8 -4 9 -3 5
4 -5 8 2 13 21 14 15 0 35 1 43 2 17 1 19 18 9 59 -10 36 -2 57 22 57 10 0 19
6 19 13 0 9 2 9 9 -1 7 -11 9 -11 14 1 3 8 0 20 -6 26 -8 8 -8 11 1 11 7 0 12
-5 12 -11 0 -5 5 -7 11 -3 8 4 8 0 0 -15 -7 -11 -8 -21 -3 -21 4 0 15 15 23
34 16 35 16 35 -12 46 -15 7 -33 9 -38 5 -6 -3 -11 -2 -11 4 0 5 12 12 28 15
15 2 -13 2 -61 0 -82 -5 -89 -4 -106 17 -18 23 -18 23 -13 -31z m142 1 c0 -5
-9 -11 -20 -14 -22 -6 -28 8 -7 16 19 8 27 8 27 -2z m-100 -17 c0 -8 -5 -12
-10 -9 -6 4 -8 11 -5 16 9 14 15 11 15 -7z m11 -151 c-12 -20 -14 -14 -5 12 4
9 9 14 11 11 3 -2 0 -13 -6 -23z m-386 -53 c0 -28 -2 -30 -41 -30 -39 0 -40 1
-36 30 4 27 8 30 41 30 33 0 36 -2 36 -30z"/>
<path d="M2945 1010 c-3 -5 -1 -10 4 -10 6 0 11 5 11 10 0 6 -2 10 -4 10 -3 0
-8 -4 -11 -10z"/>
<path d="M238 980 c-10 -9 -18 -22 -18 -28 0 -7 -8 -12 -17 -13 -109 -6 -116
-9 -128 -46 -5 -19 -2 -23 14 -23 11 0 31 4 46 10 14 5 24 6 21 1 -3 -4 5 -6
18 -4 14 3 29 18 39 37 13 29 19 32 53 29 l39 -3 -33 11 c-28 8 -32 12 -21 25
17 21 7 25 -13 4z"/>
<path d="M2310 980 c-11 -7 -4 -10 25 -9 31 0 36 2 20 9 -26 11 -28 11 -45 0z"/>
<path d="M2403 973 c9 -2 17 -9 17 -14 0 -5 7 -9 15 -9 8 0 15 -7 15 -15 0 -9
9 -15 23 -15 13 0 17 3 11 8 -6 4 -14 16 -18 27 -5 16 -15 21 -44 22 -20 1
-29 -1 -19 -4z"/>
<path d="M2180 961 c0 -5 9 -7 20 -4 11 3 20 7 20 9 0 2 -9 4 -20 4 -11 0 -20
-4 -20 -9z"/>
<path d="M2320 948 c-2 -10 -3 -23 -4 -29 -1 -6 16 -12 37 -14 20 -1 37 2 37
7 0 5 4 6 10 3 5 -3 7 0 5 7 -4 9 -17 13 -39 10 -27 -3 -35 0 -39 15 -4 16 -5
16 -7 1z"/>
<path d="M2240 943 c0 -5 15 -9 33 -10 26 -1 28 0 12 7 -26 11 -45 12 -45 3z"/>
<path d="M238 923 c7 -3 16 -2 19 1 4 3 -2 6 -13 5 -11 0 -14 -3 -6 -6z"/>
<path d="M2250 909 c0 -5 -7 -9 -16 -9 -8 0 -12 -5 -9 -10 4 -6 11 -8 16 -5 5
4 9 1 9 -4 0 -6 9 -20 19 -30 19 -19 19 -19 25 2 12 45 7 62 -19 63 -14 1 -25
-2 -25 -7z"/>
<path d="M2405 880 c3 -5 8 -10 11 -10 2 0 4 5 4 10 0 6 -5 10 -11 10 -5 0 -7
-4 -4 -10z"/>
<path d="M596 835 c8 -37 13 -45 25 -45 5 0 9 10 8 23 0 21 -1 21 -9 2 l-9
-20 0 20 c-1 11 -6 27 -11 35 -8 11 -9 7 -4 -15z"/>
<path d="M2220 850 c0 -5 7 -10 16 -10 8 0 12 5 9 10 -3 6 -10 10 -16 10 -5 0
-9 -4 -9 -10z"/>
<path d="M2186 825 c-6 -16 -9 -17 -16 -5 -8 12 -11 13 -22 2 -11 -11 -10 -13
1 -10 7 2 16 -3 19 -11 3 -9 0 -11 -8 -6 -9 6 -11 4 -5 -4 10 -17 49 21 43 40
-3 9 -7 7 -12 -6z"/>
<path d="M2680 810 c0 -5 5 -10 10 -10 6 0 10 5 10 10 0 6 -4 10 -10 10 -5 0
-10 -4 -10 -10z"/>
<path d="M2838 793 c6 -2 18 -2 25 0 6 3 1 5 -13 5 -14 0 -19 -2 -12 -5z"/>
<path d="M2108 783 c6 -2 18 -2 25 0 6 3 1 5 -13 5 -14 0 -19 -2 -12 -5z"/>
<path d="M413 753 c9 -2 23 -2 30 0 6 3 -1 5 -18 5 -16 0 -22 -2 -12 -5z"/>
<path d="M575 753 c11 -3 23 -10 27 -16 4 -6 10 -8 13 -5 13 13 -6 28 -33 27
-21 -1 -23 -2 -7 -6z"/>
<path d="M2030 730 c-13 -8 -12 -10 3 -10 9 0 17 5 17 10 0 12 -1 12 -20 0z"/>
<path d="M2608 733 c7 -3 16 -2 19 1 4 3 -2 6 -13 5 -11 0 -14 -3 -6 -6z"/>
<path d="M32 693 c-23 -3 -32 -9 -32 -24 0 -11 7 -19 16 -19 8 0 12 -5 9 -10
-4 -6 -11 -8 -16 -5 -5 4 -9 1 -9 -4 0 -6 5 -11 10 -11 6 0 10 -7 10 -15 0 -8
-4 -15 -8 -15 -14 0 -14 -86 0 -89 7 -1 57 -3 110 -6 53 -2 102 -6 107 -9 5
-4 12 -2 15 3 7 11 -17 21 -49 21 -13 0 -26 4 -29 8 -3 5 -20 7 -38 5 l-33 -3
30 10 c17 6 40 11 53 12 12 1 22 6 22 10 0 5 13 -1 29 -13 16 -12 34 -18 40
-15 14 9 14 36 1 36 -5 0 -10 -8 -10 -17 0 -24 -15 -5 -28 35 -9 25 -8 32 2
32 8 0 16 -7 20 -15 3 -10 19 -15 46 -15 34 0 40 3 40 21 0 12 4 18 11 13 8
-5 10 3 7 25 -5 37 7 42 16 6 4 -14 11 -25 17 -25 7 0 9 10 5 25 -4 14 -2 25
3 25 5 0 11 -7 13 -15 2 -11 9 -8 27 10 l23 25 -88 0 c-49 0 -138 2 -199 4
-60 2 -125 2 -143 -1z m15 -95 c-3 -8 -6 -5 -6 6 -1 11 2 17 5 13 3 -3 4 -12
1 -19z m13 -21 c0 -1 -9 -10 -20 -20 -16 -13 -20 -14 -20 -3 0 8 8 17 18 19 9
3 18 5 20 6 1 0 2 0 2 -2z m0 -57 c0 -5 -7 -7 -15 -4 -8 4 -15 8 -15 10 0 2 7
4 15 4 8 0 15 -4 15 -10z m30 0 c0 -5 -2 -10 -4 -10 -3 0 -8 5 -11 10 -3 6 -1
10 4 10 6 0 11 -4 11 -10z"/>
<path d="M2825 690 c-3 -5 1 -10 10 -10 9 0 13 5 10 10 -3 6 -8 10 -10 10 -2
0 -7 -4 -10 -10z"/>
<path d="M470 672 c0 -7 -7 -12 -15 -12 -8 0 -15 -4 -15 -10 0 -16 27 -11 34
6 4 9 4 19 1 22 -3 3 -5 0 -5 -6z"/>
<path d="M3020 670 c0 -5 5 -10 10 -10 6 0 10 5 10 10 0 6 -4 10 -10 10 -5 0
-10 -4 -10 -10z"/>
<path d="M2586 635 c-17 -13 -17 -17 -5 -32 9 -11 10 -14 2 -9 -7 4 -13 2 -13
-4 0 -6 -10 -15 -22 -20 l-23 -9 22 0 c12 -1 28 -4 36 -7 9 -3 16 3 20 15 3
14 10 19 20 15 10 -3 20 3 27 15 9 17 8 22 -5 27 -8 4 -22 1 -30 -6 -10 -9
-15 -9 -15 -1 0 6 5 11 10 11 6 0 10 5 10 10 0 14 -11 12 -34 -5z"/>
<path d="M2041 614 c0 -11 3 -14 6 -6 3 7 2 16 -1 19 -3 4 -6 -2 -5 -13z"/>
<path d="M2517 599 c7 -7 15 -10 18 -7 3 3 -2 9 -12 12 -14 6 -15 5 -6 -5z"/>
<path d="M285 545 c0 -14 5 -23 10 -21 6 2 9 9 8 15 -2 6 4 11 13 11 8 0 12 5
9 10 -13 21 -40 11 -40 -15z"/>
</g>
</svg>
