<?xml version="1.0" standalone="no"?>
<!DOCTYPE svg PUBLIC "-//W3C//DTD SVG 20010904//EN"
 "http://www.w3.org/TR/2001/REC-SVG-20010904/DTD/svg10.dtd">
<svg version="1.0" xmlns="http://www.w3.org/2000/svg"
 width="474.000000pt" height="266.000000pt" viewBox="0 0 474.000000 266.000000"
 preserveAspectRatio="xMidYMid meet">

<g transform="translate(0.000000,266.000000) scale(0.100000,-0.100000)"
fill="#000000" stroke="none">
<path d="M492 2644 c-7 -8 -10 -23 -7 -34 5 -17 2 -20 -23 -20 -34 0 -67 -32
-83 -80 -16 -46 -37 -70 -64 -70 -49 0 -124 -32 -169 -71 -45 -40 -96 -121
-96 -153 0 -21 -32 -86 -42 -86 -4 0 -8 -14 -8 -31 0 -42 52 -99 77 -83 10 6
23 20 28 30 6 10 19 19 30 19 17 0 20 7 20 41 0 39 17 74 36 74 5 0 9 -6 9
-14 0 -7 9 -25 20 -39 29 -37 27 -90 -5 -111 -42 -27 -60 -66 -66 -141 -3 -38
-9 -78 -13 -88 -8 -16 -2 -18 85 -15 l94 3 6 39 c4 25 16 48 33 63 41 35 56
30 56 -17 l0 -41 118 3 117 3 3 38 c2 20 6 37 10 37 6 0 44 -23 61 -37 3 -2 7
-22 10 -46 l6 -42 93 -3 c76 -2 92 0 92 12 0 8 -5 18 -11 21 -6 4 -8 22 -4 45
10 59 -10 114 -55 153 -33 28 -40 40 -40 69 0 22 7 41 20 53 11 10 20 26 20
37 0 21 8 22 31 5 11 -8 16 -26 15 -51 -1 -28 4 -41 18 -50 11 -6 29 -22 41
-35 27 -30 59 -22 80 19 20 38 19 55 -4 99 -11 20 -27 60 -36 89 -34 106 -124
183 -235 199 -52 8 -54 9 -79 60 -35 68 -59 93 -91 93 -24 0 -27 3 -22 25 2
15 0 25 -7 25 -7 0 -9 5 -6 10 10 16 -49 11 -63 -6z m24 -85 c4 -8 9 -8 17 0
34 34 112 -16 123 -77 4 -20 13 -45 21 -54 24 -27 12 -61 -27 -80 -45 -23
-194 -25 -245 -3 -44 18 -53 39 -32 79 8 17 20 47 27 67 11 37 32 62 60 72 25
9 48 8 56 -4z m-187 -139 c11 -5 19 -21 19 -35 0 -34 24 -59 85 -90 63 -31
125 -32 184 -4 51 25 93 72 93 104 0 30 18 36 71 24 96 -22 177 -95 200 -183
6 -23 22 -64 36 -93 24 -51 24 -52 7 -82 -10 -17 -26 -31 -36 -31 -21 0 -22 4
-8 30 7 14 6 23 -7 35 -15 16 -18 16 -28 1 -24 -32 -54 -11 -35 24 6 11 17 20
25 20 8 0 15 5 15 11 0 6 -6 9 -12 6 -20 -7 -69 33 -84 67 l-13 31 -1 -46 c0
-32 -7 -55 -22 -74 -22 -28 -32 -29 -118 -9 l-25 5 25 -15 c14 -8 42 -15 63
-16 67 0 49 -22 -68 -80 -84 -42 -95 -45 -170 -45 -76 0 -85 3 -170 47 -105
54 -117 73 -50 81 26 2 52 10 58 17 10 10 7 11 -13 6 -67 -18 -86 -18 -110 2
-21 17 -25 29 -25 70 0 28 -3 48 -7 45 -5 -2 -8 -10 -8 -17 0 -18 -67 -79 -78
-72 -6 3 -13 2 -16 -3 -3 -5 3 -11 14 -14 24 -6 35 -30 25 -54 -6 -16 -8 -16
-25 5 -27 33 -54 19 -46 -24 9 -43 -7 -51 -33 -18 -26 33 -26 61 -1 99 11 17
20 39 20 50 0 24 42 113 67 140 37 42 106 78 181 94 2 1 11 -3 21 -9z m-9
-435 c17 -9 35 -28 41 -42 8 -23 6 -31 -20 -57 -19 -20 -31 -44 -33 -66 l-3
-35 -77 -3 c-72 -3 -96 6 -68 23 5 3 7 25 4 49 -8 56 10 109 47 140 32 27 41
26 109 -9z m540 -10 c21 -23 25 -37 26 -96 1 -38 4 -72 8 -76 17 -17 0 -23
-69 -23 l-75 0 0 28 c0 28 -23 71 -47 85 -18 11 -16 52 4 73 27 27 95 54 112
44 9 -4 27 -20 41 -35z"/>
<path d="M450 2530 c-17 -10 -16 -12 28 -27 36 -13 41 -5 14 20 -21 20 -22 20
-42 7z"/>
<path d="M572 2533 c-7 -2 -17 -14 -23 -24 -10 -19 -9 -20 19 -5 16 8 33 12
37 8 4 -4 6 -1 3 7 -5 17 -17 22 -36 14z"/>
<path d="M448 2483 c7 -3 16 -2 19 1 4 3 -2 6 -13 5 -11 0 -14 -3 -6 -6z"/>
<path d="M503 2445 c2 -5 16 -10 30 -10 14 1 23 -3 21 -7 -8 -13 -41 -9 -72 9
-29 17 -31 17 -51 -1 -42 -38 -16 -83 41 -71 18 3 47 6 63 5 17 -1 46 -2 65
-3 31 -2 35 1 38 24 4 35 -22 61 -54 53 -13 -3 -24 -2 -24 2 0 5 -13 9 -30 9
-16 0 -28 -4 -27 -10z m-19 -20 c25 -19 49 -19 87 1 36 18 62 4 57 -30 -2 -17
-9 -21 -38 -19 -69 4 -85 4 -121 -2 -43 -8 -53 3 -39 39 11 29 26 32 54 11z"/>
<path d="M300 2200 c-13 -9 -13 -11 0 -20 8 -5 17 -10 20 -10 3 0 12 5 20 10
13 9 13 11 0 20 -8 5 -17 10 -20 10 -3 0 -12 -5 -20 -10z"/>
<path d="M715 2200 c-4 -7 -3 -16 3 -22 14 -14 45 -2 40 15 -6 16 -34 21 -43
7z"/>
<path d="M520 2030 c0 -5 5 -10 10 -10 6 0 10 5 10 10 0 6 -4 10 -10 10 -5 0
-10 -4 -10 -10z"/>
<path d="M4223 2615 c0 -27 2 -38 4 -22 2 15 2 37 0 50 -2 12 -4 0 -4 -28z"/>
<path d="M4253 2615 c0 -27 2 -38 4 -22 2 15 2 37 0 50 -2 12 -4 0 -4 -28z"/>
<path d="M4283 2615 c0 -27 2 -38 4 -22 2 15 2 37 0 50 -2 12 -4 0 -4 -28z"/>
<path d="M3780 2550 c-98 -98 -184 -149 -306 -180 -62 -16 -111 -20 -248 -20
-157 0 -358 12 -414 25 -22 5 -23 3 -20 -32 l3 -38 105 -12 c158 -19 512 -21
580 -4 124 31 256 108 348 203 40 42 43 48 40 94 l-3 49 -85 -85z"/>
<path d="M2267 2602 c-24 -5 -21 -19 6 -26 34 -9 70 -7 87 5 12 8 10 9 -7 4
-16 -4 -23 -2 -23 7 0 12 -27 17 -63 10z"/>
<path d="M1886 2584 c-9 -8 -20 -12 -26 -9 -15 10 -51 -5 -44 -17 5 -8 1 -9
-11 -5 -20 8 -48 -10 -38 -26 3 -5 1 -7 -5 -3 -6 3 -13 2 -17 -4 -4 -6 -11 -7
-17 -4 -6 4 -8 2 -5 -3 8 -12 -24 -43 -47 -47 -24 -3 -86 -56 -86 -73 0 -9 8
-13 23 -11 16 2 21 9 20 25 -1 11 4 27 12 33 18 15 20 -1 3 -18 -22 -22 5 -12
30 11 l24 22 -7 -24 -7 -24 23 22 c13 12 24 27 25 34 3 38 4 39 21 22 16 -16
18 -16 36 9 18 25 20 26 33 9 13 -17 13 -17 14 1 0 24 28 45 60 46 20 0 22 2
10 10 -13 9 -13 10 0 11 47 5 58 7 76 17 16 9 10 11 -33 12 -34 0 -57 -5 -67
-16z m-36 -24 c0 -5 -4 -10 -10 -10 -5 0 -10 5 -10 10 0 6 5 10 10 10 6 0 10
-4 10 -10z"/>
<path d="M1998 2563 c-10 -2 -18 -10 -18 -16 0 -8 17 -11 51 -8 28 1 47 7 42
11 -11 12 -54 19 -75 13z"/>
<path d="M2440 2560 c0 -5 9 -10 21 -10 11 0 17 5 14 10 -3 6 -13 10 -21 10
-8 0 -14 -4 -14 -10z"/>
<path d="M4546 2543 c-6 -14 -5 -15 5 -6 7 7 10 15 7 18 -3 3 -9 -2 -12 -12z"/>
<path d="M2165 2540 c-18 -8 -17 -9 8 -9 15 -1 27 4 27 9 0 12 -8 12 -35 0z"/>
<path d="M2293 2543 c9 -2 23 -2 30 0 6 3 -1 5 -18 5 -16 0 -22 -2 -12 -5z"/>
<path d="M2393 2521 c-1 -12 6 -17 23 -16 30 0 31 18 1 26 -17 5 -23 2 -24
-10z"/>
<path d="M2507 2519 c7 -7 15 -10 18 -7 3 3 -2 9 -12 12 -14 6 -15 5 -6 -5z"/>
<path d="M4520 2500 c-6 -11 -8 -20 -6 -20 3 0 10 9 16 20 6 11 8 20 6 20 -3
0 -10 -9 -16 -20z"/>
<path d="M2474 2494 c3 -9 6 -20 6 -25 0 -5 5 -9 10 -9 6 0 10 11 10 25 0 16
-6 25 -16 25 -11 0 -14 -5 -10 -16z"/>
<path d="M2010 2444 c30 -32 56 -61 58 -63 1 -2 5 -1 8 2 4 3 -3 31 -16 61
-20 51 -36 64 -51 42 -4 -4 -17 -3 -30 4 -15 8 -3 -10 31 -46z"/>
<path d="M2226 2491 c-3 -4 -10 -21 -16 -37 l-11 -29 30 29 c17 16 28 33 25
38 -7 10 -21 10 -28 -1z"/>
<path d="M2550 2483 c0 -14 -2 -15 -9 -4 -6 9 -11 10 -15 2 -4 -6 -5 -15 -2
-20 8 -12 -34 -22 -53 -12 -9 5 -30 11 -47 14 l-31 6 -11 -62 c-5 -34 -13 -70
-17 -79 -5 -12 -2 -18 8 -18 25 0 40 27 33 63 -3 18 -3 36 0 40 6 6 85 -34
108 -55 6 -4 1 -17 -12 -31 -26 -27 -28 -39 -7 -31 8 4 15 12 15 20 0 7 10 16
23 18 70 15 82 19 94 36 8 11 20 17 28 14 8 -4 15 -1 15 4 0 6 -9 13 -20 17
-11 3 -34 26 -52 51 -33 47 -48 55 -48 27z m18 -48 c-3 -3 -9 2 -12 12 -6 14
-5 15 5 6 7 -7 10 -15 7 -18z m-128 -5 c0 -5 -4 -10 -10 -10 -5 0 -10 5 -10
10 0 6 5 10 10 10 6 0 10 -4 10 -10z m76 -15 c-11 -8 -22 -12 -25 -9 -6 6 19
24 34 24 6 -1 1 -7 -9 -15z m44 -10 c0 -8 -5 -15 -11 -15 -5 0 -7 -5 -3 -12 4
-6 3 -8 -4 -5 -8 6 -9 23 -3 45 3 10 21 -1 21 -13z m57 -13 c1 -9 -9 -22 -23
-29 -27 -13 -33 1 -6 16 9 6 13 11 9 11 -10 0 1 20 11 20 4 0 8 -8 9 -18z"/>
<path d="M1852 2460 c-12 -13 -22 -18 -22 -12 0 7 -7 12 -15 12 -15 0 -19 -16
-16 -52 2 -15 -2 -16 -24 -8 -22 8 -27 7 -37 -15 -13 -29 -5 -55 18 -55 10 0
14 5 11 14 -4 10 6 22 26 35 44 27 90 77 85 92 -3 8 -11 4 -26 -11z"/>
<path d="M2287 2451 c-18 -88 -28 -111 -47 -111 -41 0 -72 -29 -32 -31 10 0
12 -3 5 -6 -20 -7 -15 -23 6 -23 10 0 21 7 25 15 3 9 12 12 21 8 9 -3 29 4 45
16 16 11 34 21 40 21 7 0 7 7 -1 22 -9 16 -9 23 0 26 17 6 13 22 -6 22 -11 0
-24 15 -34 38 l-15 37 -7 -34z"/>
<path d="M1747 2451 c-6 -25 3 -33 23 -21 13 8 13 11 -1 25 -15 15 -17 15 -22
-4z"/>
<path d="M4263 2463 c9 -2 23 -2 30 0 6 3 -1 5 -18 5 -16 0 -22 -2 -12 -5z"/>
<path d="M1965 2440 c-5 -14 -15 -20 -37 -20 l-31 0 6 -51 c4 -29 8 -54 10
-56 8 -7 222 -20 235 -13 7 3 -21 16 -63 28 l-74 22 -16 55 c-9 30 -18 55 -20
55 -2 0 -7 -9 -10 -20z"/>
<path d="M4153 2450 c-108 -25 -232 -128 -283 -235 -118 -247 4 -521 275 -621
13 -5 -7 -11 -62 -17 l-83 -10 0 -38 c0 -21 -4 -40 -10 -44 -5 -3 -1 -14 10
-25 12 -12 20 -34 20 -54 0 -18 6 -47 13 -63 10 -25 16 -29 34 -22 11 4 24 12
28 18 9 16 155 14 155 -1 0 -10 2 -10 8 0 10 14 122 25 122 11 0 -5 -7 -9 -15
-9 -8 0 -15 -7 -15 -15 0 -8 -9 -15 -19 -15 -15 0 -18 -5 -13 -22 5 -19 7 -20
10 -5 6 28 19 19 18 -13 -1 -39 -10 -38 -30 4 -19 41 -20 53 -3 59 7 3 5 6 -5
6 -10 1 -18 -6 -18 -15 0 -22 -28 -47 -46 -40 -8 3 -12 2 -9 -4 4 -6 -7 -10
-24 -10 -29 0 -29 0 -33 -65 -1 -36 0 -65 5 -65 4 0 7 -7 7 -16 0 -9 11 -25
25 -36 14 -11 25 -28 25 -39 0 -19 1 -19 16 -4 11 11 20 13 27 6 6 -6 5 -15
-5 -25 -9 -8 -18 -13 -21 -10 -3 3 -8 -5 -12 -17 -5 -14 -3 -25 4 -27 16 -5
14 -21 -5 -39 -14 -15 -15 -11 -13 38 3 51 2 54 -21 54 -23 0 -25 -3 -25 -52
0 -28 -3 -49 -7 -46 -5 2 -8 -3 -8 -11 0 -8 15 -22 34 -31 25 -12 33 -21 29
-36 -3 -10 -12 -19 -20 -19 -8 0 -12 -4 -8 -9 3 -6 -4 -15 -15 -21 -13 -7 -20
-20 -19 -38 1 -17 3 -20 6 -9 5 20 19 23 26 5 2 -7 8 -10 12 -6 4 4 2 14 -5
23 -10 13 -9 15 8 15 11 0 22 5 24 11 2 5 11 7 20 4 21 -8 35 -88 20 -118 -6
-12 -11 -16 -11 -9 -1 6 -10 12 -21 12 -11 0 -23 6 -26 14 -3 8 -11 17 -18 19
-13 5 -13 -35 -1 -75 3 -9 1 -19 -5 -23 -5 -3 -10 -11 -10 -16 0 -14 24 11 33
34 8 22 29 22 25 0 -2 -13 3 -18 19 -17 18 0 20 -2 11 -13 -6 -7 -19 -11 -28
-8 -21 7 -37 -11 -42 -45 -2 -17 2 -25 12 -25 15 -1 60 -23 50 -25 -31 -7 -40
-7 -40 1 0 4 -7 6 -15 3 -8 -4 -15 -1 -15 4 0 11 -38 28 -52 24 -5 -1 -8 5 -8
14 0 9 -9 27 -20 41 -24 30 -26 45 -5 37 8 -4 15 -1 15 5 0 6 -7 11 -15 11
-10 0 -15 10 -15 30 0 20 -5 30 -15 30 -8 0 -15 5 -15 10 0 6 6 10 14 10 8 0
16 7 20 15 3 8 15 15 26 15 12 0 18 5 15 10 -4 6 -11 7 -17 4 -8 -5 -9 -1 -5
10 5 14 3 17 -8 13 -8 -4 -17 -2 -20 3 -4 6 2 10 12 10 13 0 15 3 5 8 -10 7
-10 15 -2 37 7 19 8 31 0 39 -13 13 -13 46 1 46 7 0 8 11 4 30 -4 19 -2 37 6
46 10 12 9 17 -6 28 -14 10 -17 21 -12 52 7 42 0 84 -14 84 -14 0 -11 -28 3
-32 8 -3 3 -10 -12 -18 -14 -7 -28 -18 -32 -24 -5 -6 -8 -1 -8 12 0 12 4 22 9
22 5 0 8 22 6 48 l-4 48 31 -4 c21 -3 29 -1 24 7 -4 6 -12 9 -17 5 -6 -3 -13
3 -15 13 -3 10 -14 19 -25 20 -18 2 -19 -9 -20 -390 -1 -436 -3 -549 -14 -749
l-7 -138 130 0 c95 0 132 3 135 13 4 9 6 9 6 0 1 -10 54 -13 231 -13 l230 0 0
295 c0 162 -4 295 -8 295 -11 0 -47 581 -45 739 1 114 4 137 18 147 13 10 14
17 6 33 -6 11 -11 32 -11 48 0 26 -3 28 -44 29 -89 3 -156 15 -156 29 0 8 19
27 43 44 80 56 146 147 168 232 7 27 16 49 21 49 10 0 11 157 0 162 -4 2 -15
29 -25 60 -20 66 -87 160 -145 206 -53 42 -136 80 -192 87 l-45 5 54 -15 c76
-22 162 -70 211 -118 51 -51 98 -136 80 -147 -7 -4 -13 -19 -13 -34 -2 -32
-10 -33 -26 -3 -9 17 -10 18 -6 2 4 -11 9 -41 12 -66 5 -47 5 -47 -22 -41 -21
4 -26 1 -23 -9 3 -8 15 -13 28 -11 22 4 23 2 17 -46 -7 -63 -46 -140 -100
-200 l-42 -47 37 28 c40 29 54 34 41 15 -4 -7 -8 -25 -9 -40 -1 -36 -15 -51
-78 -89 -28 -17 -41 -28 -28 -26 12 3 22 1 22 -4 0 -11 -30 -12 -46 -1 -6 4
-14 14 -17 22 -4 10 -6 8 -6 -7 -2 -38 -39 -23 -43 17 -3 21 2 26 25 28 15 2
27 7 27 11 0 5 -20 6 -45 3 -30 -3 -45 -1 -45 7 0 6 -4 11 -10 11 -5 0 -7 -7
-4 -15 4 -9 0 -15 -10 -15 -10 0 -16 9 -16 25 0 14 -5 25 -11 25 -7 0 -10 -12
-7 -29 3 -21 1 -28 -9 -24 -8 3 -13 21 -13 44 0 39 7 48 26 29 7 -7 11 -6 11
5 0 8 -9 15 -19 15 -11 0 -18 7 -18 20 0 15 7 20 28 21 15 0 44 2 66 4 21 2
47 0 57 -6 13 -6 19 -6 19 1 0 14 47 13 53 -2 4 -10 6 -10 6 0 1 6 7 12 15 12
8 0 16 7 20 15 3 8 2 15 -2 15 -5 0 -27 14 -50 32 -38 29 -42 37 -42 74 0 35
-4 44 -22 50 -13 4 -29 14 -35 23 -12 14 -12 14 -6 -3 5 -16 3 -18 -11 -13
-10 4 -15 3 -11 -3 3 -6 2 -10 -3 -10 -11 0 -22 24 -22 46 0 8 3 14 8 14 4 0
37 28 72 62 46 43 51 50 19 25 -47 -38 -75 -48 -66 -24 3 8 1 20 -4 28 -6 9
-9 1 -9 -28 0 -44 -28 -77 -56 -66 -8 3 -17 -5 -23 -19 -5 -14 -32 -42 -60
-63 -48 -37 -62 -55 -42 -55 5 0 37 23 70 51 34 28 61 46 61 40 0 -5 -5 -13
-11 -16 -12 -8 -1 -67 15 -77 7 -5 7 -8 -3 -8 -7 0 -31 -16 -52 -35 -22 -19
-42 -35 -47 -35 -4 0 -6 -52 -4 -115 l3 -116 -28 7 c-88 20 -221 120 -204 153
5 9 8 30 7 48 l-1 31 45 -47 c25 -26 36 -36 24 -22 -51 65 -50 61 -24 81 14
10 21 22 16 27 -4 4 -16 -2 -26 -15 l-19 -23 -16 38 c-32 74 -40 156 -22 228
19 76 71 161 121 200 l36 27 19 -23 c11 -13 22 -21 26 -17 4 3 -3 16 -14 27
l-21 21 35 14 c19 8 35 17 35 20 0 3 -21 -4 -46 -14 -55 -24 -51 -23 -51 -5 0
8 6 16 13 19 8 3 11 12 8 20 -7 18 17 31 88 50 54 15 29 20 -29 6z m151 -436
c3 -8 2 -12 -4 -9 -6 3 -10 10 -10 16 0 14 7 11 14 -7z m-24 -384 c0 -11 4
-20 9 -20 5 0 7 9 4 20 -4 15 0 20 15 20 15 0 20 -6 18 -23 -1 -19 -7 -24 -33
-25 -18 -2 -33 2 -33 7 0 5 -3 16 -6 25 -4 11 -1 16 10 16 9 0 16 -8 16 -20z
m-167 -220 c-3 -11 -9 -17 -14 -15 -10 7 -1 35 11 35 5 0 6 -9 3 -20z m238 -3
c-10 -9 -11 -8 -5 6 3 10 9 15 12 12 3 -3 0 -11 -7 -18z m-294 -9 c-3 -8 -6
-5 -6 6 -1 11 2 17 5 13 3 -3 4 -12 1 -19z m158 -8 c-3 -5 -10 -10 -16 -10 -5
0 -9 5 -9 10 0 6 7 10 16 10 8 0 12 -4 9 -10z m165 -80 c0 -5 -4 -10 -10 -10
-5 0 -10 5 -10 10 0 6 5 10 10 10 6 0 10 -4 10 -10z m-138 -95 c-6 -34 -12
-32 -12 6 0 16 4 28 9 25 4 -3 6 -17 3 -31z m48 15 c0 -5 -7 -7 -15 -4 -8 4
-15 8 -15 10 0 2 7 4 15 4 8 0 15 -4 15 -10z m-8 -62 c-6 -6 -8 -17 -5 -26 4
-10 2 -13 -5 -8 -7 4 -12 14 -12 21 0 8 -6 13 -12 11 -7 -1 -10 -1 -5 1 4 3 7
16 7 29 l0 24 21 -21 c14 -14 18 -24 11 -31z m43 16 l-15 -29 0 27 c0 14 6 28
13 31 18 7 19 3 2 -29z m-105 -54 c0 -5 -4 -10 -10 -10 -5 0 -10 5 -10 10 0 6
5 10 10 10 6 0 10 -4 10 -10z m-130 -80 c9 -16 8 -20 -6 -20 -11 0 -14 5 -10
16 5 12 2 15 -9 10 -9 -3 -13 -2 -10 4 10 16 23 12 35 -10z m236 -6 c-4 -9 -9
-15 -11 -12 -3 3 -3 13 1 22 4 9 9 15 11 12 3 -3 3 -13 -1 -22z m9 -54 c3 -5
1 -10 -4 -10 -6 0 -11 5 -11 10 0 6 2 10 4 10 3 0 8 -4 11 -10z m-80 -90 c3
-5 1 -10 -4 -10 -6 0 -11 5 -11 10 0 6 2 10 4 10 3 0 8 -4 11 -10z m119 -122
c6 -5 1 -8 -11 -8 -14 0 -23 -6 -23 -15 0 -8 6 -12 14 -9 11 4 13 0 9 -17 -3
-12 -14 -24 -25 -26 -10 -3 -18 -10 -18 -16 0 -6 -3 -8 -6 -5 -3 4 0 16 6 28
7 13 8 25 4 29 -5 3 -10 18 -11 33 -1 21 3 28 20 30 12 2 24 -1 26 -7 2 -5 9
-13 15 -17z m-287 -20 c-3 -8 -6 -5 -6 6 -1 11 2 17 5 13 3 -3 4 -12 1 -19z
m253 -118 c0 -5 -2 -10 -4 -10 -3 0 -8 5 -11 10 -3 6 -1 10 4 10 6 0 11 -4 11
-10z m-4 -54 c18 -18 18 -26 0 -26 -7 0 -16 9 -19 20 -6 24 -1 25 19 6z m-221
-76 c-8 -13 -35 0 -35 16 0 12 4 12 20 4 11 -6 18 -15 15 -20z m245 15 c-7 -8
-16 -15 -21 -15 -5 0 -6 7 -3 15 4 8 13 15 21 15 13 0 13 -3 3 -15z m-75 -75
c-3 -5 -11 -10 -16 -10 -6 0 -7 5 -4 10 3 6 11 10 16 10 6 0 7 -4 4 -10z m-95
-7 c0 -5 -5 -15 -10 -23 -8 -12 -10 -11 -10 8 0 12 5 22 10 22 6 0 10 -3 10
-7z m174 -13 c17 6 26 6 26 0 0 -6 -6 -10 -12 -10 -7 0 -23 -3 -34 -6 -14 -4
-23 0 -28 12 -5 13 -4 15 8 5 9 -8 21 -8 40 -1z m-64 -24 c0 -14 -4 -28 -10
-31 -6 -4 -10 7 -10 24 0 17 5 31 10 31 6 0 10 -11 10 -24z m108 -21 c-3 -3
-9 2 -12 12 -6 14 -5 15 5 6 7 -7 10 -15 7 -18z m-43 5 c-3 -5 -15 -10 -26
-10 -10 0 -19 5 -19 10 0 6 12 10 26 10 14 0 23 -4 19 -10z m-178 -16 c-3 -3
-12 -4 -19 -1 -8 3 -5 6 6 6 11 1 17 -2 13 -5z m183 -14 c0 -5 -12 -10 -27 -9
-25 0 -26 1 -8 9 27 12 35 12 35 0z m-180 -20 c0 -11 -4 -20 -9 -20 -7 0 -8
17 -2 38 4 10 11 -2 11 -18z m100 -10 c0 -5 -4 -10 -10 -10 -5 0 -10 5 -10 10
0 6 5 10 10 10 6 0 10 -4 10 -10z m-10 -58 c0 -8 -1 -13 -3 -11 -1 2 -9 12
-16 22 -12 15 -12 17 3 11 9 -3 16 -13 16 -22z m67 -22 c1 -11 -2 -20 -8 -20
-5 0 -9 9 -9 20 0 11 4 20 8 20 4 0 8 -9 9 -20z m3 -50 c0 -5 -4 -10 -10 -10
-5 0 -10 5 -10 10 0 6 5 10 10 10 6 0 10 -4 10 -10z m0 -114 c0 -2 -7 -6 -15
-10 -8 -3 -15 -1 -15 4 0 6 7 10 15 10 8 0 15 -2 15 -4z"/>
<path d="M2650 2420 c0 -5 5 -10 11 -10 5 0 7 5 4 10 -3 6 -8 10 -11 10 -2 0
-4 -4 -4 -10z"/>
<path d="M1864 2404 c4 -9 0 -24 -8 -33 -8 -9 -16 -24 -18 -35 -2 -14 4 -19
30 -22 28 -3 33 -1 29 14 -3 9 -8 34 -12 55 -3 20 -11 37 -17 37 -5 0 -7 -7
-4 -16z"/>
<path d="M4218 2383 c7 -3 16 -2 19 1 4 3 -2 6 -13 5 -11 0 -14 -3 -6 -6z"/>
<path d="M4328 2383 c6 -2 18 -2 25 0 6 3 1 5 -13 5 -14 0 -19 -2 -12 -5z"/>
<path d="M4277 2373 c-11 -10 -8 -43 3 -43 6 0 10 11 10 25 0 26 -2 29 -13 18z"/>
<path d="M4427 2356 c29 -14 76 -46 105 -72 l53 -48 -45 48 c-44 47 -91 77
-140 90 -14 3 -2 -5 27 -18z"/>
<path d="M1643 2345 c7 -14 20 -25 30 -25 10 0 16 -4 12 -9 -3 -5 -1 -12 5
-16 5 -3 10 1 10 9 0 8 -8 20 -17 25 -16 9 -16 10 4 11 36 0 17 26 -21 28 -33
2 -34 2 -23 -23z"/>
<path d="M2456 2315 c-3 -8 -1 -15 3 -15 5 0 11 7 15 15 3 8 1 15 -3 15 -5 0
-11 -7 -15 -15z"/>
<path d="M2585 2320 c-3 -6 -17 -7 -29 -4 -16 4 -25 0 -29 -10 -9 -24 46 -21
68 4 10 11 13 20 7 20 -6 0 -14 -5 -17 -10z"/>
<path d="M4436 2314 c-4 -9 -4 -19 -2 -21 8 -8 26 8 26 23 0 19 -16 18 -24 -2z"/>
<path d="M1784 2278 c7 -35 31 -66 43 -55 3 4 -2 14 -13 22 -18 13 -17 14 19
15 20 0 37 3 37 6 0 14 -33 36 -62 41 -30 5 -31 4 -24 -29z"/>
<path d="M2302 2259 l-17 -41 -55 6 c-55 6 -94 -4 -71 -18 6 -4 20 -5 30 -1
14 4 23 0 31 -15 15 -27 64 -27 84 1 13 19 17 20 45 8 23 -10 27 -16 19 -26
-8 -10 -6 -13 6 -13 9 0 20 8 23 17 4 10 20 29 36 42 25 21 26 26 13 33 -9 5
-20 7 -25 3 -21 -12 -20 15 1 29 22 16 22 16 -14 16 -25 0 -40 -6 -47 -17 -10
-17 -10 -17 -11 0 0 32 -31 18 -48 -24z m93 -19 c-3 -5 -14 -10 -23 -10 -15 0
-15 2 -2 10 20 13 33 13 25 0z"/>
<path d="M4270 2256 c0 -25 5 -46 10 -46 6 0 10 18 10 39 0 22 -4 43 -10 46
-6 4 -10 -12 -10 -39z"/>
<path d="M4300 2259 c0 -10 40 -32 47 -26 3 3 1 11 -4 19 -9 15 -43 20 -43 7z"/>
<path d="M1934 2225 c3 -10 -1 -15 -12 -15 -15 0 -15 -2 -2 -10 37 -24 62 -4
33 27 -16 18 -26 16 -19 -2z"/>
<path d="M2050 2225 c0 -11 43 -25 60 -20 34 11 22 25 -20 25 -22 0 -40 -2
-40 -5z"/>
<path d="M1834 2197 c-7 -9 -2 -19 20 -37 17 -14 27 -19 23 -12 -6 8 -1 12 15
12 22 0 22 1 -7 25 -35 28 -36 28 -51 12z"/>
<path d="M3980 2195 c0 -8 2 -15 4 -15 2 0 11 -3 20 -6 23 -9 20 13 -4 26 -16
9 -20 8 -20 -5z"/>
<path d="M4557 2195 c-10 -7 -14 -16 -9 -19 5 -3 17 1 27 8 10 7 14 15 9 19
-5 3 -17 -1 -27 -8z"/>
<path d="M2114 2185 c-6 -16 -50 -16 -87 0 -24 10 -31 1 -17 -24 9 -17 15 -19
30 -11 10 5 30 10 43 10 13 0 32 9 42 20 11 12 13 20 6 20 -6 0 -14 -7 -17
-15z"/>
<path d="M1970 2164 c0 -8 5 -12 10 -9 6 4 8 11 5 16 -9 14 -15 11 -15 -7z"/>
<path d="M4330 2170 c0 -5 5 -10 10 -10 6 0 10 5 10 10 0 6 -4 10 -10 10 -5 0
-10 -4 -10 -10z"/>
<path d="M2308 2143 c-10 -2 -18 -8 -18 -13 0 -12 33 -5 38 8 2 7 2 11 0 11
-1 -1 -11 -3 -20 -6z"/>
<path d="M2034 2105 c-17 -13 -17 -14 -1 -15 9 0 17 5 17 11 0 5 5 7 11 3 8
-4 8 -9 0 -17 -14 -14 -14 -27 0 -27 5 0 8 4 4 9 -3 5 -1 12 4 16 11 6 4 35
-8 35 -4 0 -16 -7 -27 -15z"/>
<path d="M2232 2088 c-18 -13 -30 -29 -27 -37 3 -8 0 -11 -8 -8 -7 3 -24 -1
-38 -9 l-24 -13 29 -1 c16 0 44 11 62 25 18 14 40 25 48 25 9 0 16 5 16 10 0
6 -6 9 -12 8 -7 -2 -12 3 -10 10 3 16 2 16 -36 -10z"/>
<path d="M1957 2093 c-14 -13 -6 -20 22 -19 22 1 27 4 19 14 -11 13 -31 16
-41 5z"/>
<path d="M2115 2093 c-44 -9 -48 -12 -35 -28 16 -19 50 -20 50 -1 0 8 5 16 12
18 18 6 -4 15 -27 11z"/>
<path d="M2310 2089 c0 -5 5 -7 10 -4 6 3 10 8 10 11 0 2 -4 4 -10 4 -5 0 -10
-5 -10 -11z"/>
<path d="M2067 2047 c-3 -7 3 -13 14 -13 13 0 15 3 7 13 -6 7 -12 13 -13 13
-2 0 -5 -6 -8 -13z"/>
<path d="M3940 2030 c-12 -8 -12 -10 2 -15 20 -8 41 2 33 16 -8 11 -16 11 -35
-1z"/>
<path d="M2188 2002 c-10 -2 -18 -8 -18 -13 0 -11 11 -11 30 1 18 11 11 18
-12 12z"/>
<path d="M2105 1990 c3 -5 12 -7 20 -3 21 7 19 13 -6 13 -11 0 -18 -4 -14 -10z"/>
<path d="M2738 1923 c-20 -5 -34 -45 -23 -64 5 -7 22 -9 46 -6 l39 5 0 -38 c0
-52 -26 -82 -72 -83 -34 -1 -68 16 -68 33 0 5 9 6 19 3 11 -3 28 4 40 16 17
17 19 25 11 42 -14 25 -33 33 -65 25 -57 -14 -58 -102 -2 -137 77 -48 177 5
177 94 0 41 -30 107 -49 107 -5 0 -15 2 -23 4 -7 2 -21 2 -30 -1z m37 -32 c7
-12 -12 -24 -25 -16 -11 7 -4 25 10 25 5 0 11 -4 15 -9z m-75 -71 c0 -12 -28
-25 -36 -17 -9 9 6 27 22 27 8 0 14 -5 14 -10z"/>
<path d="M2119 1913 c-1 -4 0 -18 1 -30 1 -22 -1 -23 -89 -23 -81 0 -91 -2
-91 -18 0 -15 8 -17 63 -14 52 3 67 0 90 -18 28 -22 37 -65 15 -73 -7 -2 -21
3 -31 11 -16 14 -20 14 -47 -1 -27 -16 -60 -14 -60 3 0 14 18 21 25 10 10 -17
25 -11 25 9 0 24 -23 33 -55 21 -29 -11 -34 -50 -9 -74 18 -19 44 -20 79 -4
19 9 28 9 37 0 30 -30 88 1 88 48 0 13 -7 32 -17 42 -15 17 -15 19 2 38 15 16
17 26 9 47 -9 25 -33 43 -35 26z"/>
<path d="M2329 1913 c-1 -5 0 -18 1 -30 1 -22 -2 -23 -74 -23 -61 0 -76 -3
-76 -15 0 -11 11 -15 38 -16 75 -1 112 -23 112 -65 0 -37 -20 -38 -56 -3 -30
29 -37 32 -61 23 -18 -6 -29 -18 -31 -32 -5 -34 5 -53 23 -46 9 4 14 13 11 21
-12 31 7 32 40 3 39 -34 59 -37 92 -14 26 18 29 60 8 90 -13 16 -12 21 1 36
18 20 9 78 -13 78 -8 0 -14 -3 -15 -7z"/>
<path d="M2559 1913 c-1 -4 0 -18 1 -30 1 -22 -2 -23 -84 -23 -68 0 -86 -3
-86 -14 0 -8 5 -16 11 -18 7 -2 7 -12 -1 -30 -27 -58 21 -115 75 -90 19 9 30
9 45 0 48 -30 99 39 68 93 -14 24 -14 28 0 43 12 12 14 22 6 43 -9 25 -33 44
-35 26z m-36 -94 c28 -15 37 -28 37 -55 0 -27 -24 -38 -40 -18 -7 8 -18 14
-25 14 -7 0 -18 -6 -25 -14 -16 -20 -40 -9 -40 18 0 28 19 53 45 59 11 3 21 5
23 6 2 0 13 -4 25 -10z"/>
<path d="M1686 1897 c-29 -21 -16 -51 22 -55 34 -3 42 -16 16 -26 -25 -10 -31
-8 -60 19 -43 39 -104 29 -104 -17 0 -22 26 -24 34 -3 6 16 36 21 36 7 0 -5
-13 -18 -30 -30 -38 -29 -41 -68 -5 -84 19 -8 31 -8 51 0 17 8 31 9 44 2 44
-24 93 -1 93 44 0 15 -3 29 -5 32 -10 9 -37 -8 -32 -20 3 -7 -2 -19 -11 -26
-13 -11 -19 -10 -36 6 -18 17 -22 17 -47 2 -39 -23 -62 -8 -31 21 25 23 27 24
82 21 48 -2 67 14 67 56 0 23 -7 38 -22 48 -27 19 -39 20 -62 3z m44 -27 c0
-5 -7 -10 -15 -10 -8 0 -15 5 -15 10 0 6 7 10 15 10 8 0 15 -4 15 -10z"/>
<path d="M4546 1872 c-2 -4 4 -13 14 -20 11 -7 21 -8 25 -2 3 5 -3 14 -14 20
-11 5 -22 6 -25 2z"/>
<path d="M1827 1842 c-28 -30 -22 -84 13 -117 26 -25 30 -26 36 -11 4 10 0 24
-10 35 -17 19 -22 36 -7 27 5 -4 21 -2 35 4 28 10 36 46 14 68 -18 18 -63 14
-81 -6z m61 -24 c-7 -19 -38 -22 -38 -4 0 10 9 16 21 16 12 0 19 -5 17 -12z"/>
<path d="M4470 1761 c0 -5 5 -13 10 -16 6 -3 10 -2 10 4 0 5 -4 13 -10 16 -5
3 -10 2 -10 -4z"/>
<path d="M4113 1748 c-20 -26 -23 -37 -12 -44 8 -4 9 -3 5 4 -4 7 -3 12 3 12
6 0 15 9 21 20 12 22 -2 28 -17 8z"/>
<path d="M4430 1753 c0 -5 4 -15 10 -23 11 -18 25 -7 17 15 -6 15 -27 21 -27
8z"/>
<path d="M4411 1724 c0 -11 3 -14 6 -6 3 7 2 16 -1 19 -3 4 -6 -2 -5 -13z"/>
<path d="M4475 1720 c-3 -5 -1 -10 4 -10 6 0 11 5 11 10 0 6 -2 10 -4 10 -3 0
-8 -4 -11 -10z"/>
<path d="M2755 1676 c-13 -9 -16 -20 -11 -39 3 -15 11 -27 17 -27 7 0 9 10 5
25 -7 28 10 34 33 13 11 -10 14 -10 18 0 3 6 12 12 20 12 11 0 14 -7 9 -25 -7
-28 8 -34 22 -9 20 36 -12 74 -46 55 -10 -5 -23 -6 -33 -1 -10 6 -23 5 -34 -4z"/>
<path d="M4480 1670 c0 -5 7 -10 15 -10 8 0 15 5 15 10 0 6 -7 10 -15 10 -8 0
-15 -4 -15 -10z"/>
<path d="M1242 1588 c-20 -20 -15 -48 9 -48 14 0 19 5 16 15 -4 8 -2 17 3 20
11 7 32 -29 23 -39 -3 -3 -39 -6 -80 -6 -58 0 -73 -3 -73 -15 0 -11 12 -15 40
-16 22 -1 45 -3 50 -4 6 -1 14 -3 19 -4 19 -2 41 -33 41 -56 0 -35 -24 -37
-56 -4 -44 46 -94 35 -94 -21 0 -32 7 -41 26 -33 9 3 12 13 9 23 -10 31 12 31
43 0 34 -34 57 -37 90 -14 26 18 29 59 7 91 -13 18 -13 22 0 33 20 16 19 54
-1 74 -18 19 -55 21 -72 4z"/>
<path d="M1527 1584 c-4 -4 -4 -17 -1 -30 6 -23 5 -23 -88 -26 -110 -4 -121
-21 -17 -28 59 -4 74 -9 90 -29 10 -13 19 -30 19 -37 0 -19 -29 -29 -43 -15
-13 13 -47 15 -47 2 0 -13 -27 -21 -45 -15 -8 4 -15 12 -15 20 0 16 16 19 25
4 10 -17 25 -11 25 9 0 11 -9 22 -20 26 -55 17 -87 -63 -34 -87 19 -9 33 -9
55 0 23 8 37 8 55 0 17 -8 31 -8 47 -1 15 7 29 8 38 2 24 -15 54 -10 78 12 31
29 23 84 -15 117 -24 21 -28 22 -36 8 -6 -11 -2 -22 12 -36 29 -29 23 -64 -12
-68 -18 -2 -28 1 -28 10 0 7 -7 26 -15 41 -13 25 -13 31 0 51 23 34 -3 95 -28
70z"/>
<path d="M1821 1579 c-20 -8 -23 -15 -19 -46 3 -20 -1 -49 -8 -63 -28 -57 16
-117 70 -92 18 8 32 8 55 -1 44 -16 71 10 71 72 0 98 -85 164 -169 130z m107
-46 c29 -18 22 -29 -7 -13 -12 6 -36 8 -56 4 -28 -5 -35 -3 -35 9 0 29 52 29
98 0z m10 -55 c6 -6 12 -23 12 -39 0 -22 -5 -29 -20 -29 -11 0 -20 5 -20 10 0
15 -36 12 -50 -5 -10 -12 -16 -13 -26 -4 -39 32 17 96 71 82 11 -3 26 -10 33
-15z"/>
<path d="M2239 1583 c-1 -5 0 -18 1 -30 1 -19 -4 -23 -29 -23 -38 0 -41 -22
-6 -38 33 -15 44 -60 20 -78 -28 -21 -55 -1 -55 41 0 83 -121 106 -151 28 -25
-66 38 -129 105 -105 24 9 39 9 64 0 26 -10 37 -10 52 0 15 9 26 10 40 2 29
-16 58 -12 80 10 21 21 27 74 10 85 -5 3 -10 11 -10 17 0 14 87 3 106 -13 33
-27 4 -90 -33 -74 -17 8 -17 8 0 12 24 6 22 43 -3 43 -49 0 -45 -73 5 -86 55
-14 99 48 75 105 -16 39 -48 51 -140 51 -87 0 -103 -13 -55 -44 41 -27 28 -90
-16 -79 -11 3 -19 14 -19 27 0 12 -6 31 -14 41 -12 16 -12 22 2 42 12 19 12
29 4 48 -11 24 -31 34 -33 18z m-117 -100 c34 -31 13 -78 -33 -71 -32 5 -45
31 -31 62 13 30 37 33 64 9z"/>
<path d="M2578 1583 c-23 -6 -33 -45 -19 -71 6 -12 7 -22 1 -28 -6 -6 -13 -31
-16 -57 -6 -43 -5 -47 15 -47 15 0 21 6 21 24 0 36 20 84 38 91 25 9 52 -30
52 -76 0 -32 3 -39 20 -39 17 0 20 7 20 48 0 61 -15 115 -38 135 -20 18 -67
28 -94 20z m80 -45 c20 -17 14 -30 -9 -18 -11 7 -27 9 -36 6 -22 -9 -36 3 -22
20 12 15 42 11 67 -8z"/>
<path d="M2869 1583 c-1 -4 0 -18 1 -30 1 -22 -2 -23 -63 -23 l-64 0 -1 -52
c-1 -29 1 -60 4 -69 7 -25 58 -42 99 -35 55 11 86 76 50 106 -14 12 -14 15 2
32 13 14 14 25 7 45 -9 25 -33 43 -35 26z m-7 -107 c4 -6 8 -18 8 -27 0 -43
-76 -53 -91 -11 -17 46 56 80 83 38z"/>
<path d="M2940 1510 c-65 -65 34 -165 129 -132 21 7 40 7 65 0 81 -25 120 65
56 127 -26 25 -33 27 -40 15 -6 -10 -3 -21 10 -35 36 -39 19 -95 -24 -79 -10
4 -13 15 -9 37 3 23 -1 40 -17 60 -25 31 -35 34 -44 10 -4 -10 -1 -20 9 -25
19 -11 20 -52 0 -68 -21 -17 -84 -15 -103 4 -15 15 -14 16 6 16 30 0 63 35 55
57 -14 38 -61 45 -93 13z m60 -20 c0 -12 -28 -25 -36 -17 -9 9 6 27 22 27 8 0
14 -5 14 -10z"/>
<path d="M1685 1400 c-3 -5 -4 -14 0 -20 3 -5 -3 -18 -15 -30 -11 -11 -20 -24
-20 -30 0 -18 39 -50 61 -50 28 0 61 19 54 31 -4 5 -14 5 -26 -2 -24 -12 -59
-3 -59 17 0 12 3 12 20 2 15 -9 25 -10 37 -2 27 17 27 33 -1 45 -14 7 -26 18
-26 25 0 17 -17 27 -25 14z m45 -60 c0 -5 -4 -10 -10 -10 -5 0 -10 5 -10 10 0
6 5 10 10 10 6 0 10 -4 10 -10z"/>
<path d="M4090 1299 c0 -5 5 -7 10 -4 6 3 10 8 10 11 0 2 -4 4 -10 4 -5 0 -10
-5 -10 -11z"/>
<path d="M4085 1270 c3 -5 8 -10 11 -10 2 0 4 5 4 10 0 6 -5 10 -11 10 -5 0
-7 -4 -4 -10z"/>
<path d="M3226 1257 c-11 -8 -17 -23 -14 -38 3 -21 8 -24 43 -25 l40 -1 -1
-43 c-1 -29 -7 -47 -19 -57 -23 -16 -87 -17 -103 -1 -14 14 -16 32 -3 24 19
-12 61 13 61 37 0 30 -18 47 -50 47 -36 0 -60 -29 -60 -72 0 -99 166 -119 205
-23 25 59 6 128 -42 153 -28 15 -35 15 -57 -1z m42 -28 c-2 -6 -8 -10 -13 -10
-5 0 -11 4 -13 10 -2 6 4 11 13 11 9 0 15 -5 13 -11z m-70 -71 c-7 -19 -38
-22 -38 -4 0 10 9 16 21 16 12 0 19 -5 17 -12z"/>
<path d="M4122 1243 c3 -24 48 -55 48 -34 0 5 -9 11 -20 14 -25 6 -26 24 -2
29 14 3 12 5 -6 10 -20 6 -23 3 -20 -19z"/>
<path d="M1027 1254 c-4 -4 -4 -18 -1 -30 6 -23 4 -24 -59 -24 -65 0 -93 -13
-66 -31 11 -8 11 -12 -5 -24 -18 -13 -18 -16 -2 -48 21 -46 64 -64 115 -49 24
8 42 21 49 37 8 17 20 25 37 25 26 0 33 -18 13 -38 -9 -9 -7 -13 5 -18 25 -9
49 15 43 42 -4 13 -2 26 4 29 19 12 11 55 -12 64 -39 14 -80 -12 -62 -40 9
-15 -23 -10 -35 5 -8 10 -9 16 -1 21 11 7 13 44 4 69 -6 17 -16 20 -27 10z
m-10 -110 c2 -6 -15 -10 -37 -9 -43 0 -51 8 -23 23 18 11 55 1 60 -14z m123
11 c0 -8 -4 -15 -9 -15 -13 0 -22 16 -14 24 11 11 23 6 23 -9z m-122 -57 c-7
-20 -74 -22 -81 -4 -5 13 2 16 39 16 32 0 44 -4 42 -12z"/>
<path d="M1609 1253 c-1 -5 0 -18 1 -30 1 -22 -2 -23 -64 -23 -52 0 -66 -3
-66 -15 0 -12 13 -15 55 -15 54 0 77 -15 33 -22 -26 -3 -37 -36 -16 -49 7 -5
23 -7 36 -4 28 7 29 -11 1 -18 -27 -7 -65 7 -72 27 -9 23 -37 20 -37 -3 0 -45
75 -74 130 -51 36 15 46 42 29 81 -9 24 -9 35 1 54 10 19 11 31 2 50 -11 24
-31 34 -33 18z m-9 -127 c0 -11 -19 -15 -25 -6 -3 5 1 10 9 10 9 0 16 -2 16
-4z"/>
<path d="M1799 1253 c-1 -4 0 -18 1 -30 1 -22 -2 -23 -64 -23 -52 0 -66 -3
-66 -15 0 -11 12 -15 49 -15 51 0 79 -16 39 -22 -26 -3 -37 -36 -16 -49 7 -5
23 -7 36 -4 12 3 22 1 22 -4 0 -5 -12 -12 -26 -15 -27 -7 -74 15 -74 34 0 6
-7 10 -15 10 -20 0 -19 -34 1 -54 37 -38 127 -32 146 10 9 19 8 32 -4 58 -15
31 -15 35 0 50 12 12 14 22 6 43 -9 25 -33 44 -35 26z m-9 -127 c0 -11 -19
-15 -25 -6 -3 5 1 10 9 10 9 0 16 -2 16 -4z"/>
<path d="M2029 1253 c-1 -4 0 -18 1 -30 1 -22 -2 -23 -64 -23 -52 0 -66 -3
-66 -15 0 -8 7 -15 15 -15 18 0 18 -1 0 -36 -22 -43 -20 -84 5 -84 15 0 20 7
20 29 0 40 15 77 34 84 27 11 56 -28 56 -73 0 -33 3 -40 20 -40 16 0 20 7 20
33 0 17 -6 44 -14 58 -12 24 -12 29 2 43 12 12 14 22 6 43 -9 25 -33 44 -35
26z"/>
<path d="M2253 1253 c-9 -3 -10 -10 -3 -22 11 -21 4 -31 -22 -31 -25 0 -23
-27 3 -35 11 -4 19 -14 17 -23 -4 -19 -52 -36 -76 -27 -16 6 -16 7 1 16 21 12
22 55 1 63 -30 12 -54 6 -69 -18 -19 -29 -6 -71 24 -81 12 -3 18 -12 15 -20
-3 -7 4 -19 16 -25 23 -12 79 -5 81 11 1 5 2 13 3 19 0 5 11 16 22 25 18 12
22 25 22 67 0 82 -5 94 -35 81z m-93 -93 c0 -5 -9 -10 -21 -10 -11 0 -17 5
-14 10 3 6 13 10 21 10 8 0 14 -4 14 -10z m50 -80 c0 -5 -7 -10 -15 -10 -8 0
-15 5 -15 10 0 6 7 10 15 10 8 0 15 -4 15 -10z"/>
<path d="M2469 1253 c-1 -5 -2 -17 -3 -28 -1 -18 -9 -20 -78 -23 -60 -2 -78
-6 -78 -17 0 -11 13 -15 54 -15 43 0 58 -5 80 -25 29 -27 33 -47 12 -64 -11
-10 -21 -6 -45 18 -34 33 -51 37 -82 21 -19 -11 -24 -35 -13 -64 8 -22 34 -8
34 20 0 31 13 31 33 0 19 -28 56 -39 88 -28 13 5 34 5 50 -1 69 -27 110 72 54
129 -21 21 -29 23 -40 14 -13 -11 -11 -17 10 -42 29 -35 30 -41 9 -62 -21 -21
-54 -4 -54 28 0 13 -7 29 -16 37 -14 11 -14 13 0 21 16 9 21 44 10 72 -6 16
-23 22 -25 9z"/>
<path d="M3397 1232 c-21 -23 -5 -52 31 -52 20 0 23 -3 12 -9 -8 -6 -18 -7
-22 -5 -4 3 -13 2 -19 -2 -14 -8 8 -24 34 -24 21 0 57 34 57 55 0 21 -36 55
-58 55 -11 0 -26 -8 -35 -18z m53 -23 c0 -5 -7 -9 -15 -9 -15 0 -20 12 -9 23
8 8 24 -1 24 -14z"/>
<path d="M1257 1213 c-17 -16 -3 -23 43 -23 28 0 50 -2 50 -4 0 -3 -16 -39
-35 -82 -19 -42 -35 -78 -35 -80 0 -2 8 -4 18 -4 12 0 28 26 55 88 20 48 37
93 37 100 0 13 -121 18 -133 5z"/>
<path d="M4075 1210 c3 -5 10 -10 16 -10 5 0 9 5 9 10 0 6 -7 10 -16 10 -8 0
-12 -4 -9 -10z"/>
<path d="M2740 1185 c0 -13 21 -15 133 -15 147 0 180 -10 185 -51 4 -31 -21
-54 -45 -44 -17 8 -17 8 0 12 21 5 23 31 2 39 -20 8 -45 -13 -45 -37 0 -20 36
-49 61 -49 9 0 27 8 40 19 34 27 32 86 -5 117 -26 23 -34 24 -177 24 -126 0
-149 -2 -149 -15z"/>
<path d="M2836 1145 c-3 -9 1 -18 10 -22 19 -7 28 2 21 22 -8 19 -23 19 -31 0z"/>
<path d="M2919 1143 c-1 -5 0 -20 1 -35 2 -31 -16 -37 -50 -16 -15 10 -22 9
-37 -3 -10 -8 -24 -14 -30 -13 -7 1 -17 2 -23 3 -13 1 -13 31 -1 31 6 0 13 -4
16 -10 10 -17 25 -11 25 9 0 24 -32 36 -60 21 -29 -15 -26 -56 6 -76 22 -15
31 -16 59 -5 27 9 38 9 55 -1 17 -11 25 -10 48 2 29 17 37 38 28 76 -6 22 -34
35 -37 17z"/>
<path d="M3507 1144 c-3 -4 -4 -19 -1 -34 9 -40 -18 -45 -55 -9 -17 16 -40 29
-50 29 -38 0 -63 -45 -43 -78 11 -17 45 -4 38 15 -12 31 7 32 40 3 40 -35 66
-38 94 -10 22 22 25 42 10 71 -11 19 -22 24 -33 13z"/>
<path d="M4200 1071 c0 -5 7 -12 16 -15 14 -5 15 -4 4 9 -14 17 -20 19 -20 6z"/>
<path d="M1860 1050 c0 -16 -7 -20 -30 -20 -16 0 -30 -4 -30 -10 0 -5 11 -10
25 -10 26 0 42 -21 30 -39 -4 -7 -12 -7 -25 1 -14 9 -22 9 -34 -1 -16 -13 -36
-7 -36 11 0 5 7 7 16 4 10 -4 14 -1 12 6 -7 20 -42 15 -46 -5 -6 -32 15 -44
72 -42 30 1 58 5 64 9 8 4 9 55 3 109 -2 17 -21 5 -21 -13z"/>
<path d="M2625 1060 c-3 -5 -4 -14 -1 -19 4 -5 3 -17 0 -26 -6 -15 -8 -15 -24
0 -22 20 -59 16 -73 -7 -16 -24 9 -48 49 -48 19 0 43 -5 54 -12 24 -15 41 -1
18 16 -11 8 -14 17 -7 27 11 18 12 66 0 74 -5 3 -12 1 -16 -5z m-35 -65 c11
-13 8 -15 -14 -15 -16 0 -26 5 -26 15 0 8 6 15 14 15 7 0 19 -7 26 -15z"/>
<path d="M380 880 c0 -5 -16 -10 -35 -10 -39 0 -101 -27 -126 -56 -33 -37 -60
-98 -66 -144 -5 -43 -3 -50 22 -71 15 -13 34 -37 42 -54 9 -16 20 -33 26 -37
6 -3 -8 -11 -31 -17 -46 -13 -105 -75 -97 -102 3 -9 -2 -22 -11 -30 -13 -11
-18 -11 -21 -2 -5 13 -7 12 -55 -30 -28 -24 -38 -57 -17 -57 11 0 72 -43 105
-75 12 -11 29 -37 39 -58 21 -45 70 -64 95 -37 8 9 11 9 5 2 -8 -12 -6 -14 13
-8 16 6 22 3 22 -8 0 -9 4 -16 9 -16 5 0 18 -3 28 -6 10 -3 3 7 -16 24 -28 24
-34 36 -35 72 -1 55 18 63 35 13 6 -21 19 -49 28 -63 18 -27 51 -63 51 -55 0
3 10 -3 22 -15 12 -11 28 -20 35 -20 7 0 13 -4 13 -10 0 -6 30 -10 70 -10 40
0 70 4 70 10 0 6 5 10 12 10 6 0 20 8 31 17 15 13 18 14 12 3 -6 -12 -5 -13 5
-3 11 10 11 15 -1 29 -11 14 -11 18 1 28 8 6 15 20 15 30 0 15 11 23 45 32 64
16 129 54 155 89 21 27 22 35 14 85 -5 30 -10 83 -10 117 0 34 -4 65 -9 68 -6
4 -10 16 -10 28 0 25 -50 77 -74 77 -9 0 -15 3 -15 8 4 22 -3 32 -23 32 -47 0
-66 11 -72 42 -3 16 -20 45 -38 64 -32 34 -34 35 -95 30 -62 -6 -63 -5 -63 19
0 17 -11 32 -37 50 -39 26 -63 32 -63 15z m155 -111 c-27 -5 -62 -13 -77 -18
-16 -5 -28 -8 -28 -5 0 13 63 33 105 32 l50 0 -50 -9z m-133 -58 c-9 -16 -18
-28 -21 -26 -4 5 27 55 34 55 2 0 -4 -13 -13 -29z m81 -33 c-11 -13 -25 -32
-31 -43 -9 -16 -11 -17 -12 -4 0 20 37 69 52 69 7 0 2 -10 -9 -22z m275 -163
c-3 -3 -9 2 -12 12 -6 14 -5 15 5 6 7 -7 10 -15 7 -18z m49 -92 c-3 -10 -5 -2
-5 17 0 19 2 27 5 18 2 -10 2 -26 0 -35z m-27 -8 c0 -14 -5 -25 -11 -25 -5 0
-8 -4 -4 -9 3 -5 1 -12 -5 -16 -6 -4 -8 -10 -5 -15 3 -5 1 -11 -5 -15 -14 -9
-12 20 4 60 8 18 12 36 8 39 -3 3 0 6 6 6 7 0 12 -11 12 -25z m-47 -42 c-8
-23 -23 -43 -33 -43 -5 0 -3 14 3 30 12 32 41 44 30 13z m27 -82 c-25 -36 -36
-41 -19 -8 16 31 31 48 37 43 2 -3 -6 -19 -18 -35z m-110 -11 c-24 -15 -37
-11 -16 5 11 8 22 12 25 9 3 -3 -1 -9 -9 -14z m-86 -46 c7 -19 2 -18 -19 6
-16 17 -16 20 -3 15 9 -4 19 -13 22 -21z m-26 -38 c28 -25 114 -26 162 -1 17
9 37 14 43 12 24 -8 -50 -35 -113 -41 l-65 -7 -45 42 c-43 40 -29 36 18 -5z"/>
<path d="M4153 801 c-1 -14 1 -19 4 -11 3 8 10 20 14 26 5 6 4 11 -4 11 -7 0
-13 -12 -14 -26z"/>
<path d="M4236 754 c-4 -15 -2 -32 3 -37 7 -7 9 -4 6 11 -5 29 3 28 15 0 8
-20 9 -19 7 11 -3 42 -22 52 -31 15z"/>
<path d="M1468 753 c19 -4 20 -6 8 -19 -19 -18 -51 -18 -70 1 -16 17 -30 20
-21 6 3 -5 1 -12 -5 -16 -16 -10 -12 -137 5 -159 8 -11 15 -32 15 -48 0 -44
28 -36 32 10 2 25 8 37 18 37 8 0 15 -7 15 -15 0 -8 4 -18 9 -22 6 -4 4 -13
-3 -22 -12 -14 -10 -16 7 -16 17 0 21 7 24 43 4 56 32 59 36 5 4 -53 32 -52
32 1 0 37 19 68 33 54 4 -3 7 -21 7 -38 0 -18 7 -38 14 -45 13 -10 15 -3 18
42 2 39 7 53 18 53 11 0 16 -14 20 -50 3 -35 7 -44 12 -32 5 10 11 16 15 14 5
-3 8 11 8 31 0 26 4 37 15 37 11 0 16 -13 18 -43 3 -34 7 -43 20 -40 11 2 16
11 14 25 -4 27 15 66 29 58 5 -4 9 -21 9 -39 0 -25 5 -35 20 -39 18 -5 20 0
20 38 0 24 4 46 9 50 13 7 31 -27 31 -59 0 -16 6 -26 15 -26 11 0 15 12 15 44
0 25 5 48 10 51 13 8 30 -37 24 -63 -3 -11 0 -21 8 -25 19 -7 26 142 7 153
-20 13 0 30 35 30 l32 0 -4 -87 c-4 -81 -3 -86 12 -68 15 20 15 20 16 -2 0
-37 0 -38 -16 -37 -8 1 -14 -7 -14 -18 0 -10 4 -17 9 -14 14 9 21 -20 8 -33
-8 -8 -7 -11 6 -11 9 0 17 -7 17 -15 0 -8 -4 -15 -10 -15 -5 0 -10 5 -10 10 0
6 -4 10 -10 10 -14 0 -12 -27 3 -33 10 -4 10 -6 0 -6 -7 -1 -13 -12 -13 -26 0
-14 -4 -25 -10 -25 -5 0 -10 -8 -10 -17 0 -10 -5 -25 -11 -33 -9 -13 -10 -12
-5 3 3 9 1 17 -5 17 -6 0 -6 7 1 20 7 14 7 20 0 20 -5 0 -10 12 -10 26 0 14
-4 23 -9 20 -5 -4 -11 -1 -13 6 -3 9 -6 9 -12 0 -4 -7 -2 -12 3 -12 16 0 13
-26 -3 -39 -22 -19 -33 11 -26 72 5 49 4 53 -15 51 -31 -4 -31 -4 -16 -13 17
-11 25 -51 11 -51 -6 0 -10 -15 -11 -32 0 -32 -17 -85 -18 -60 -1 6 -8 12 -16
12 -9 0 -12 6 -9 15 4 8 1 15 -5 15 -6 0 -11 11 -11 25 0 15 6 25 14 25 9 0
12 7 9 20 -3 11 -10 20 -15 20 -6 0 -5 7 2 15 10 12 10 15 -3 15 -17 0 -27
-66 -17 -115 8 -43 -3 -108 -19 -113 -8 -3 -11 0 -7 7 5 7 1 9 -8 5 -19 -7
-34 25 -17 35 19 12 8 165 -12 169 -12 3 -15 -10 -15 -70 0 -119 -2 -139 -14
-132 -7 5 -9 -2 -4 -20 6 -26 6 -26 -12 -9 -13 12 -16 22 -9 30 13 17 5 34
-11 24 -7 -4 -14 -22 -14 -39 -1 -18 -6 -32 -13 -32 -16 0 -25 23 -25 66 0 19
-5 34 -10 34 -6 0 -8 15 -4 39 4 24 2 41 -5 45 -6 4 -11 4 -10 -1 2 -4 -1 -30
-6 -56 -5 -33 -4 -52 4 -60 14 -14 14 -37 1 -37 -5 0 -10 6 -10 14 0 8 -11 27
-24 43 -14 16 -21 34 -18 40 13 20 1 103 -14 103 -8 0 -14 -4 -14 -10 0 -5 4
-10 9 -10 5 0 8 -11 7 -25 0 -14 -4 -25 -8 -25 -5 0 -7 -3 -7 -7 1 -5 1 -18 0
-31 -1 -19 -4 -21 -20 -13 -16 9 -18 17 -11 46 4 20 4 35 -1 35 -5 0 -9 7 -9
15 0 8 -7 15 -15 15 -9 0 -15 -9 -15 -25 0 -14 5 -25 10 -25 14 0 13 -28 -2
-44 -17 -18 -48 22 -48 63 0 22 -4 29 -14 25 -7 -3 -21 2 -30 11 -9 9 -16 12
-16 7 0 -5 7 -15 15 -22 8 -7 15 -21 15 -32 0 -14 -5 -18 -15 -14 -13 4 -15
-7 -15 -73 0 -70 2 -80 25 -101 l25 -23 1 29 c0 25 2 26 8 9 5 -11 4 -28 -1
-37 -5 -10 -6 -18 -2 -18 3 0 1 -7 -6 -15 -16 -19 -29 -8 -32 28 -1 15 -6 27
-10 27 -4 0 -8 -49 -8 -110 l0 -110 34 0 c21 0 36 6 40 15 3 8 10 15 15 15 6
0 8 -7 5 -15 -5 -11 1 -15 24 -15 22 0 32 6 37 20 7 21 30 27 39 11 3 -5 15
-7 26 -4 16 4 19 2 14 -11 -6 -15 61 -16 796 -16 709 0 801 2 796 15 -4 10 1
15 14 15 26 0 25 14 -2 32 -22 15 -22 15 10 10 18 -2 32 0 32 6 0 6 -10 8 -22
4 -16 -4 -19 -2 -13 8 5 8 1 18 -10 26 -10 8 -15 17 -11 21 4 5 16 -2 25 -14
14 -16 21 -19 30 -10 10 10 16 -20 13 -72 -1 -22 24 -41 53 -41 20 0 26 4 22
14 -4 10 -1 13 9 9 7 -3 14 -9 14 -14 0 -5 14 -9 30 -9 l30 0 0 128 c1 70 2
159 3 198 1 54 -1 70 -10 67 -16 -6 -17 29 -2 44 8 8 4 11 -15 10 -22 -2 -26
-7 -26 -30 0 -16 -9 -40 -20 -54 -11 -14 -20 -20 -20 -14 0 7 -5 9 -10 6 -6
-4 -10 5 -10 19 0 14 5 26 10 26 19 0 11 47 -9 53 -14 3 -17 0 -14 -14 3 -11
1 -19 -5 -19 -6 0 -7 -13 -2 -35 7 -29 5 -37 -10 -45 -15 -8 -19 -5 -25 18
-12 49 -14 82 -5 82 6 0 10 5 10 10 0 6 -6 10 -14 10 -15 0 -27 -83 -14 -103
3 -6 -4 -24 -18 -40 -13 -16 -24 -35 -24 -43 0 -8 -4 -14 -10 -14 -5 0 -10 9
-10 20 0 11 5 20 11 20 14 0 3 90 -13 105 -7 7 -9 -3 -4 -32 3 -24 2 -44 -4
-48 -5 -3 -10 -19 -10 -35 0 -38 -9 -60 -26 -60 -9 0 -14 11 -14 28 0 15 -7
36 -15 46 -15 20 -15 20 -15 0 0 -11 4 -24 8 -29 5 -6 1 -18 -10 -28 -20 -19
-20 -18 -13 2 4 12 2 21 -4 21 -6 0 -11 12 -11 28 0 15 -4 42 -10 61 -5 19 -6
39 -3 45 4 5 8 25 10 44 3 28 1 33 -14 30 -15 -3 -18 -16 -21 -86 -2 -69 0
-82 13 -82 13 0 13 -3 3 -20 -7 -11 -19 -18 -26 -15 -8 3 -10 0 -6 -6 4 -7 1
-10 -7 -7 -17 5 -27 71 -18 114 9 43 -3 106 -21 112 -13 5 -13 3 -1 -11 7 -10
9 -17 3 -17 -5 0 -12 -9 -15 -20 -3 -13 0 -20 9 -20 8 0 14 -10 14 -25 0 -14
-5 -25 -11 -25 -6 0 -9 -7 -5 -15 3 -9 0 -15 -9 -15 -8 0 -15 -6 -16 -12 -1
-25 -18 28 -18 60 -1 17 -5 32 -9 32 -10 0 -9 31 2 48 4 7 5 16 2 19 -3 4 -6
1 -6 -7 0 -9 -3 -10 -13 -2 -10 9 -12 1 -7 -43 7 -63 -4 -93 -26 -74 -16 13
-19 39 -3 39 5 0 7 5 3 11 -5 8 -8 8 -14 0 -5 -9 -10 -8 -18 2 -9 10 -8 18 3
33 8 10 15 27 15 37 0 26 -24 16 -28 -11 -4 -25 -12 -27 -32 -9 -8 6 -7 3 3
-9 9 -11 17 -26 17 -32 0 -7 5 -12 10 -12 6 0 10 -11 10 -25 0 -14 -5 -25 -10
-25 -7 0 -7 -6 0 -20 7 -13 7 -20 1 -20 -6 0 -7 -7 -4 -17 4 -11 3 -14 -5 -9
-7 4 -12 18 -12 32 0 13 -4 24 -10 24 -5 0 -10 11 -10 24 0 13 -6 27 -12 29
-10 4 -10 6 0 6 14 1 17 31 2 31 -5 0 -10 -4 -10 -10 0 -5 -4 -10 -10 -10 -5
0 -10 7 -10 15 0 8 5 15 11 15 6 0 8 7 5 15 -3 9 1 18 9 21 19 8 20 42 1 40
-16 -1 -16 0 -16 37 1 22 1 22 16 2 15 -18 16 -13 12 68 l-4 87 30 0 31 0 -2
-95 c-1 -56 3 -93 8 -89 5 3 9 20 9 38 0 33 20 62 33 49 4 -3 7 -26 7 -50 0
-32 4 -43 15 -43 10 0 15 10 15 34 0 33 20 62 33 49 4 -3 7 -24 7 -45 0 -32 3
-38 21 -38 17 0 20 4 15 23 -7 29 17 67 29 47 4 -7 9 -27 9 -44 1 -21 7 -32
19 -34 14 -3 17 4 17 37 0 42 16 63 31 40 5 -8 8 -26 6 -41 -2 -15 0 -25 4
-22 4 2 12 -4 18 -13 8 -14 10 -8 11 29 0 26 5 50 11 54 20 12 33 -15 30 -62
-2 -31 1 -44 8 -40 6 4 11 19 11 34 0 36 14 56 34 49 11 -4 16 -19 16 -47 0
-54 27 -56 32 -2 4 54 32 51 36 -5 3 -36 7 -43 24 -43 17 0 18 2 8 15 -10 12
-10 21 -1 41 16 36 35 25 39 -24 2 -31 7 -40 18 -35 8 3 14 19 14 38 0 19 5
37 10 40 6 3 10 24 10 47 0 32 -3 39 -15 34 -20 -7 -20 39 0 74 8 14 14 28 15
33 0 4 -79 7 -175 7 -110 0 -175 -4 -175 -10 0 -5 17 -10 38 -10 32 0 41 -5
56 -32 l19 -31 -24 7 c-13 4 -76 21 -139 39 l-115 31 -480 4 c-456 3 -485 2
-580 -18 -55 -12 -108 -23 -118 -26 -15 -5 -17 -1 -11 20 l6 26 -138 -1 c-77
-1 -129 -4 -116 -6z m130 -20 c-2 -9 -8 -18 -15 -20 -7 -3 -9 3 -6 16 6 25 26
28 21 4z m52 8 c0 -12 -29 -35 -36 -28 -7 6 17 36 29 37 4 0 7 -4 7 -9z m1530
-1 c0 -5 -2 -10 -4 -10 -3 0 -8 5 -11 10 -3 6 -1 10 4 10 6 0 11 -4 11 -10z
m71 -47 c25 -40 23 -43 -13 -36 -25 5 -38 26 -38 65 0 26 26 11 51 -29z m90
-24 l-10 -24 0 26 c-1 14 2 29 6 33 12 12 14 -9 4 -35z m-1212 -161 c0 -7 -4
-22 -9 -33 -9 -19 -9 -19 -16 3 -3 12 -11 22 -18 22 -15 0 16 20 32 20 6 0 12
-6 11 -12z m581 2 c10 -6 11 -10 3 -10 -7 0 -13 -7 -13 -15 0 -20 -16 -19 -24
1 -13 34 2 45 34 24z m-580 -96 c0 -8 -4 -14 -10 -14 -5 0 -10 9 -10 21 0 11
5 17 10 14 6 -3 10 -13 10 -21z m560 6 c0 -19 -11 -26 -23 -14 -8 8 3 34 14
34 5 0 9 -9 9 -20z m-586 -41 c-3 -5 -10 -7 -15 -3 -5 3 -7 10 -3 15 3 5 10 7
15 3 5 -3 7 -10 3 -15z m607 -2 c-13 -13 -26 -3 -16 12 3 6 11 8 17 5 6 -4 6
-10 -1 -17z m-556 3 c3 -5 -1 -10 -9 -10 -9 0 -16 5 -16 10 0 6 4 10 9 10 6 0
13 -4 16 -10z m510 0 c-3 -5 -11 -10 -16 -10 -6 0 -7 5 -4 10 3 6 11 10 16 10
6 0 7 -4 4 -10z m-805 -90 c0 -5 -4 -10 -10 -10 -5 0 -10 5 -10 10 0 6 5 10
10 10 6 0 10 -4 10 -10z m1100 6 c0 -3 -4 -8 -10 -11 -5 -3 -10 -1 -10 4 0 6
5 11 10 11 6 0 10 -2 10 -4z m-1491 -23 c-3 -30 1 -43 10 -43 5 0 12 8 14 18
2 9 3 0 1 -20 -3 -30 -1 -38 11 -38 9 0 13 -4 10 -10 -13 -20 14 -9 30 13 l17
22 -7 -25 c-10 -34 -36 -54 -48 -37 -9 12 -6 0 10 -40 6 -16 5 -17 -11 -3 -16
13 -20 12 -33 -5 -14 -19 -15 -19 -8 5 4 14 12 28 17 31 7 4 6 9 0 13 -6 3
-13 2 -17 -4 -3 -5 -12 -10 -18 -10 -7 0 -4 7 6 14 24 18 21 35 -5 28 -16 -4
-19 -2 -12 9 5 8 10 26 11 42 4 49 6 57 15 57 5 0 8 -8 7 -17z m1876 -6 c0 -7
8 -13 18 -15 10 -2 17 3 17 12 0 9 5 16 10 16 7 0 7 -7 0 -21 -7 -12 -9 -33
-5 -47 7 -25 8 -26 15 -7 8 17 9 16 9 -8 1 -20 -3 -26 -11 -21 -9 5 -9 2 1 -9
8 -10 9 -17 3 -17 -12 0 -25 18 -28 38 -2 8 -6 17 -10 20 -4 4 -4 -1 -1 -10 5
-13 1 -18 -13 -18 -25 0 -25 -8 -2 -27 16 -13 15 -13 -7 -7 -19 5 -23 3 -18
-10 19 -45 19 -52 2 -31 l-16 20 -15 -20 c-15 -19 -15 -19 -9 8 5 17 3 27 -4
27 -6 0 -12 8 -12 18 -1 16 -2 16 -6 0 -2 -10 -9 -18 -14 -18 -6 0 -8 4 -5 9
3 5 -3 11 -14 14 -11 3 -20 11 -20 19 0 11 2 10 9 -1 12 -18 32 -5 24 17 -4
13 -2 13 10 -3 8 -11 19 -17 23 -13 4 4 13 3 20 -3 7 -6 18 -8 24 -4 14 9 13
36 -2 33 -8 -2 -14 9 -15 27 -3 28 -2 28 7 7 14 -33 33 -17 24 21 -3 18 -3 28
2 24 5 -5 9 -14 9 -20z m-1925 3 c0 -5 -2 -10 -4 -10 -3 0 -8 5 -11 10 -3 6
-1 10 4 10 6 0 11 -4 11 -10z m267 -90 c2 -11 -2 -20 -7 -20 -5 0 -9 11 -8 25
3 27 10 25 15 -5z m1441 -2 c-2 -39 2 -48 16 -48 17 0 25 -18 18 -42 -5 -20
-23 -15 -18 5 1 7 1 9 -1 5 -2 -4 -10 -6 -16 -4 -7 1 -9 1 -4 -1 18 -11 5 -22
-15 -14 -13 5 -22 14 -20 20 1 6 -2 11 -7 11 -5 0 -8 11 -8 25 0 23 1 23 12 9
17 -24 32 -11 29 25 -1 17 2 31 7 31 4 0 8 -10 7 -22z m-1556 -21 c-29 -30
-28 -38 8 -62 27 -18 29 -21 13 -32 -23 -17 -64 -17 -57 0 2 7 6 29 7 50 3 34
34 83 45 72 3 -3 -4 -15 -16 -28z m152 -35 c-3 -28 -4 -29 -29 -34 -11 -1 -23
-7 -27 -12 -3 -5 -13 -2 -22 7 -18 18 -10 51 10 43 8 -3 14 0 14 7 0 7 13 12
28 12 24 0 28 -4 26 -23z m-124 3 c-7 -8 -17 -15 -22 -15 -6 0 -5 7 2 15 7 8
17 15 22 15 6 0 5 -7 -2 -15z m1410 -35 c0 -5 -5 -10 -11 -10 -5 0 -7 5 -4 10
3 6 8 10 11 10 2 0 4 -4 4 -10z m76 -41 c3 -6 1 -16 -6 -22 -9 -9 -15 -7 -26
7 -21 30 -19 49 5 36 11 -5 23 -15 27 -21z m-1331 11 c-13 -5 -15 -9 -5 -9 12
-1 11 -4 -3 -18 -13 -13 -20 -14 -29 -5 -15 15 7 42 36 41 20 0 21 -1 1 -9z"/>
<path d="M1550 70 c0 -5 7 -7 15 -4 8 4 15 8 15 10 0 2 -7 4 -15 4 -8 0 -15
-4 -15 -10z"/>
<path d="M1688 113 c7 -3 16 -2 19 1 4 3 -2 6 -13 5 -11 0 -14 -3 -6 -6z"/>
<path d="M3056 45 c4 -8 11 -15 16 -15 6 0 5 6 -2 15 -7 8 -14 15 -16 15 -2 0
-1 -7 2 -15z"/>
<path d="M1720 40 c0 -5 5 -10 10 -10 6 0 10 5 10 10 0 6 -4 10 -10 10 -5 0
-10 -4 -10 -10z"/>
<path d="M4110 738 c0 -5 7 -8 15 -8 8 0 15 -7 15 -15 0 -8 5 -15 10 -15 6 0
10 -4 10 -10 0 -20 -28 -10 -33 12 -8 31 -16 19 -10 -14 3 -15 9 -25 14 -22 5
3 9 -2 9 -10 0 -32 27 -16 28 17 2 57 -5 72 -33 72 -14 0 -25 -3 -25 -7z"/>
<path d="M4140 616 c0 -9 30 -14 35 -6 4 6 -3 10 -14 10 -12 0 -21 -2 -21 -4z"/>
<path d="M1700 483 c0 -15 -2 -16 -10 -3 -7 11 -10 8 -9 -15 0 -16 3 -24 6
-17 2 6 10 12 17 12 6 0 12 9 12 20 0 11 -4 20 -8 20 -4 0 -8 -8 -8 -17z"/>
<path d="M1974 469 c3 -18 10 -35 15 -39 5 -3 11 -14 14 -25 4 -16 5 -15 6 6
0 14 7 31 14 39 10 12 9 12 -5 1 -14 -11 -17 -9 -20 15 -2 15 -9 30 -17 32
-11 4 -13 -3 -7 -29z"/>
<path d="M3084 481 c0 -11 9 -22 19 -25 14 -3 17 0 15 17 -4 28 -34 35 -34 8z"/>
<path d="M1622 465 c-11 -12 -10 -15 3 -15 8 0 15 7 15 15 0 18 -2 18 -18 0z"/>
<path d="M3160 460 c0 -5 5 -10 10 -10 6 0 10 5 10 10 0 6 -4 10 -10 10 -5 0
-10 -4 -10 -10z"/>
<path d="M1701 422 c0 -7 -5 -10 -11 -7 -6 4 -10 -10 -10 -35 0 -27 5 -43 15
-47 22 -8 23 -4 15 52 -4 28 -8 44 -9 37z"/>
<path d="M3090 391 c0 -16 -3 -37 -6 -46 -5 -13 -2 -16 12 -13 24 4 32 73 9
82 -11 4 -15 -2 -15 -23z"/>
</g>
</svg>
